<svg width="1426" height="662" viewBox="0 0 1426 662" fill="none" xmlns="http://www.w3.org/2000/svg">
<g filter="url(#filter0_f)">
<path d="M495.078 512.087L481.405 517.658L462.882 471.918L499.344 457.023C504.369 454.971 506.823 449.224 504.778 444.181C502.733 439.137 497.007 436.675 491.981 438.727L455.519 453.622L444.417 426.178C442.372 421.135 436.645 418.672 431.62 420.724C426.595 422.777 424.141 428.524 426.186 433.567L437.288 461.011L423.615 466.581C401.001 475.788 390.074 501.766 399.248 524.46C408.422 547.154 434.308 558.12 456.922 548.913L470.595 543.342L489.118 589.082L443.54 607.671C438.515 609.724 436.061 615.471 438.106 620.514C440.151 625.557 445.878 628.02 450.903 625.967L496.481 607.378L507.583 634.822C509.628 639.865 515.355 642.328 520.38 640.276C525.405 638.223 527.859 632.477 525.814 627.433L514.712 599.989L528.385 594.419C550.999 585.212 561.926 559.234 552.752 536.54C543.578 513.846 517.692 502.88 495.078 512.087ZM449.501 530.676C436.938 535.778 422.563 529.738 417.421 517.071C412.337 504.463 418.356 490.038 430.977 484.877L444.651 479.306L463.174 525.046L449.501 530.676ZM521.023 576.123L507.349 581.693L488.826 535.954L502.499 530.383C515.063 525.281 529.437 531.321 534.579 543.987C539.663 556.595 533.586 571.021 521.023 576.123Z" fill="url(#paint0_linear)"/>
</g>
<path d="M1361.07 554.037L1353.44 549.977L1367.07 524.516L1387.42 535.328C1390.23 536.818 1393.73 535.769 1395.23 532.96C1396.73 530.152 1395.69 526.655 1392.89 525.164L1372.53 514.352L1380.71 499.08C1382.21 496.272 1381.18 492.775 1378.37 491.285C1375.56 489.794 1372.06 490.844 1370.56 493.652L1362.38 508.924L1354.76 504.864C1342.15 498.147 1326.37 502.966 1319.61 515.591C1312.84 528.216 1317.61 543.961 1330.22 550.679L1337.85 554.739L1324.22 580.2L1298.79 566.674C1295.99 565.184 1292.48 566.233 1290.98 569.042C1289.48 571.85 1290.52 575.347 1293.32 576.838L1318.76 590.364L1310.58 605.636C1309.08 608.444 1310.11 611.941 1312.92 613.431C1315.72 614.922 1319.23 613.872 1320.73 611.064L1328.91 595.792L1336.53 599.852C1349.14 606.569 1364.91 601.75 1371.68 589.125C1378.45 576.5 1373.68 560.755 1361.07 554.037ZM1335.64 540.511C1328.64 536.774 1325.97 528.049 1329.74 520.993C1333.5 513.985 1342.24 511.286 1349.29 515.027L1356.92 519.088L1343.29 544.549L1335.64 540.511ZM1342 589.689L1334.37 585.628L1348 560.167L1355.62 564.227C1362.62 567.964 1365.29 576.689 1361.52 583.745C1357.76 590.753 1349 593.425 1342 589.689Z" fill="url(#paint1_radial)"/>
<g filter="url(#filter1_f)">
<path d="M1196.23 146.911L1161.39 124.765L1183.54 89.9317C1185.58 86.7238 1184.64 82.4597 1181.43 80.4236C1178.22 78.3874 1173.96 79.3266 1171.92 82.5345L1149.77 117.367L1114.94 95.2211C1111.73 93.185 1107.47 94.1242 1105.43 97.3321C1103.4 100.54 1104.34 104.804 1107.54 106.84L1142.38 128.986L1120.23 163.819C1118.19 167.027 1119.13 171.291 1122.34 173.327C1125.55 175.364 1129.81 174.424 1131.85 171.216L1154 136.384L1188.83 158.53C1192.04 160.566 1196.3 159.627 1198.34 156.419C1200.37 153.211 1199.42 148.982 1196.23 146.911Z" fill="#2387FF"/>
</g>
<path d="M31.8737 452.647L86.0941 425.587C88.2347 424.528 90.8343 425.388 91.8932 427.529C92.9522 429.669 92.0923 432.269 89.9516 433.328L35.7313 460.388C33.5907 461.447 30.9911 460.587 29.9322 458.446C28.8732 456.306 29.7331 453.706 31.8737 452.647Z" fill="url(#paint2_radial)"/>
<path d="M1027.63 185.6L1018.09 187.907L1015.78 178.372C1015.57 177.494 1014.68 176.951 1013.81 177.165C1012.93 177.378 1012.39 178.262 1012.6 179.14L1014.91 188.676L1005.37 190.983C1004.49 191.196 1003.95 192.081 1004.16 192.958C1004.38 193.836 1005.26 194.379 1006.14 194.166L1015.68 191.858L1017.98 201.394C1018.2 202.271 1019.08 202.814 1019.96 202.601C1020.84 202.388 1021.38 201.503 1021.17 200.626L1018.86 191.09L1028.39 188.782C1029.27 188.569 1029.81 187.685 1029.6 186.807C1029.39 185.929 1028.51 185.394 1027.63 185.6Z" fill="white"/>
<defs>
<filter id="filter0_f" x="375" y="399" width="202" height="263" filterUnits="userSpaceOnUse" color-interpolation-filters="sRGB">
<feFlood flood-opacity="0" result="BackgroundImageFix"/>
<feBlend mode="normal" in="SourceGraphic" in2="BackgroundImageFix" result="shape"/>
<feGaussianBlur stdDeviation="10.5" result="effect1_foregroundBlur"/>
</filter>
<filter id="filter1_f" x="1050.4" y="25.3904" width="202.97" height="202.97" filterUnits="userSpaceOnUse" color-interpolation-filters="sRGB">
<feFlood flood-opacity="0" result="BackgroundImageFix"/>
<feBlend mode="normal" in="SourceGraphic" in2="BackgroundImageFix" result="shape"/>
<feGaussianBlur stdDeviation="17.5" result="effect1_foregroundBlur"/>
</filter>
<linearGradient id="paint0_linear" x1="476" y1="420" x2="476" y2="583.5" gradientUnits="userSpaceOnUse">
<stop stop-color="white" stop-opacity="0.2"/>
<stop offset="1" stop-color="white" stop-opacity="0"/>
</linearGradient>
<radialGradient id="paint1_radial" cx="0" cy="0" r="1" gradientUnits="userSpaceOnUse" gradientTransform="translate(1350.42 521.753) rotate(127.098) scale(90.2676 65.3521)">
<stop stop-color="#2387FF"/>
<stop offset="1" stop-color="#2387FF" stop-opacity="0"/>
</radialGradient>
<radialGradient id="paint2_radial" cx="0" cy="0" r="1" gradientUnits="userSpaceOnUse" gradientTransform="translate(97.2143 427.378) rotate(-168.843) scale(60.4542 181.696)">
<stop stop-color="white"/>
<stop offset="1" stop-color="white" stop-opacity="0"/>
</radialGradient>
</defs>
</svg>
