<svg width="1417" height="676" viewBox="0 0 1417 676" fill="none" xmlns="http://www.w3.org/2000/svg">
<g filter="url(#filter0_f)">
<path d="M1327.1 503.087L1313.43 508.658L1294.91 462.918L1331.37 448.023C1336.4 445.971 1338.85 440.224 1336.8 435.181C1334.76 430.137 1329.03 427.675 1324.01 429.727L1287.55 444.622L1276.44 417.178C1274.4 412.135 1268.67 409.672 1263.65 411.724C1258.62 413.777 1256.17 419.524 1258.21 424.567L1269.31 452.011L1255.64 457.581C1233.03 466.788 1222.1 492.766 1231.27 515.46C1240.45 538.154 1266.33 549.12 1288.95 539.913L1302.62 534.342L1321.14 580.082L1275.57 598.671C1270.54 600.724 1268.09 606.471 1270.13 611.514C1272.18 616.557 1277.9 619.02 1282.93 616.967L1328.51 598.378L1339.61 625.822C1341.65 630.865 1347.38 633.328 1352.41 631.276C1357.43 629.223 1359.89 623.477 1357.84 618.433L1346.74 590.989L1360.41 585.419C1383.03 576.212 1393.95 550.234 1384.78 527.54C1375.6 504.846 1349.72 493.88 1327.1 503.087ZM1281.53 521.676C1268.96 526.778 1254.59 520.738 1249.45 508.071C1244.36 495.463 1250.38 481.038 1263 475.877L1276.68 470.306L1295.2 516.046L1281.53 521.676ZM1353.05 567.123L1339.38 572.693L1320.85 526.954L1334.53 521.383C1347.09 516.281 1361.46 522.321 1366.61 534.987C1371.69 547.595 1365.61 562.021 1353.05 567.123Z" fill="url(#paint0_linear)"/>
</g>
<path d="M58.293 348.574L50.3109 351.881L39.3149 325.179L60.6002 316.338C63.5337 315.12 64.9501 311.749 63.736 308.805C62.522 305.861 59.1626 304.439 56.2291 305.657L34.9438 314.498L28.353 298.477C27.139 295.533 23.7796 294.112 20.8461 295.33C17.9125 296.548 16.4961 299.92 17.7102 302.864L24.301 318.885L16.3189 322.191C3.11788 327.656 -3.1871 342.895 2.25903 356.143C7.70517 369.392 22.8903 375.72 36.0913 370.255L44.0733 366.948L55.0694 393.65L28.4627 404.684C25.5292 405.902 24.1128 409.273 25.3268 412.217C26.5409 415.161 29.9002 416.583 32.8338 415.365L59.4405 404.331L66.0313 420.352C67.2453 423.296 70.6047 424.717 73.5382 423.499C76.4718 422.281 77.8882 418.91 76.6741 415.966L70.0833 399.944L78.0654 396.638C91.2664 391.173 97.5714 375.934 92.1252 362.686C86.6791 349.437 71.494 343.109 58.293 348.574ZM31.6863 359.608C24.3523 362.637 15.9201 359.152 12.8677 351.757C9.84965 344.397 13.322 335.935 20.69 332.872L28.672 329.565L39.6681 356.267L31.6863 359.608ZM73.6943 385.957L65.7122 389.264L54.7162 362.562L62.6982 359.255C70.0322 356.227 78.4644 359.712 81.5168 367.106C84.5348 374.466 81.0283 382.928 73.6943 385.957Z" fill="url(#paint1_radial)"/>
<g filter="url(#filter1_f)">
<path d="M993.682 162.817L938.959 173.669L928.108 118.946C927.105 113.91 922.208 110.617 917.171 111.62C912.135 112.622 908.842 117.52 909.845 122.556L920.696 177.279L865.974 188.13C860.937 189.132 857.645 194.03 858.647 199.066C859.65 204.103 864.547 207.395 869.584 206.393L924.306 195.541L935.157 250.264C936.16 255.3 941.057 258.593 946.094 257.59C951.13 256.588 954.423 251.691 953.42 246.654L942.569 191.931L997.291 181.08C1002.33 180.078 1005.62 175.18 1004.62 170.144C1003.62 165.107 998.74 161.858 993.682 162.817Z" fill="#2387FF"/>
</g>
<path d="M1383.01 229.515L1324.02 215.662C1321.69 215.108 1320.25 212.785 1320.8 210.462C1321.35 208.139 1323.68 206.69 1326 207.244L1384.99 221.097C1387.32 221.651 1388.76 223.974 1388.21 226.297C1387.66 228.62 1385.33 230.07 1383.01 229.515Z" fill="url(#paint2_radial)"/>
<path d="M473.652 145.6L464.116 147.907L461.809 138.372C461.596 137.494 460.711 136.951 459.833 137.165C458.956 137.378 458.413 138.262 458.626 139.14L460.934 148.676L451.398 150.983C450.52 151.196 449.978 152.081 450.191 152.958C450.404 153.836 451.289 154.379 452.166 154.166L461.702 151.858L464.01 161.394C464.223 162.271 465.107 162.814 465.985 162.601C466.862 162.388 467.405 161.503 467.192 160.626L464.884 151.09L474.42 148.782C475.298 148.569 475.84 147.685 475.627 146.807C475.414 145.929 474.534 145.394 473.652 145.6Z" fill="white"/>
<g filter="url(#filter2_f)">
<path d="M369.648 584.967L332.088 574.525L342.531 536.965C343.49 533.506 341.47 529.911 338.012 528.953C334.553 527.994 330.958 530.014 330 533.472L319.557 571.032L281.997 560.589C278.539 559.631 274.944 561.651 273.985 565.109C273.026 568.567 275.046 572.162 278.504 573.121L316.064 583.564L305.622 621.124C304.663 624.582 306.683 628.177 310.141 629.135C313.599 630.094 317.194 628.074 318.153 624.616L328.596 587.056L366.156 597.499C369.614 598.457 373.209 596.437 374.168 592.979C375.126 589.521 373.106 585.96 369.648 584.967Z" fill="url(#paint3_radial)"/>
</g>
<defs>
<filter id="filter0_f" x="1207.03" y="390" width="202" height="263" filterUnits="userSpaceOnUse" color-interpolation-filters="sRGB">
<feFlood flood-opacity="0" result="BackgroundImageFix"/>
<feBlend mode="normal" in="SourceGraphic" in2="BackgroundImageFix" result="shape"/>
<feGaussianBlur stdDeviation="10.5" result="effect1_foregroundBlur"/>
</filter>
<filter id="filter1_f" x="799.898" y="52.8705" width="263.469" height="263.469" filterUnits="userSpaceOnUse" color-interpolation-filters="sRGB">
<feFlood flood-opacity="0" result="BackgroundImageFix"/>
<feBlend mode="normal" in="SourceGraphic" in2="BackgroundImageFix" result="shape"/>
<feGaussianBlur stdDeviation="17.5" result="effect1_foregroundBlur"/>
</filter>
<filter id="filter2_f" x="261.747" y="516.714" width="124.659" height="124.659" filterUnits="userSpaceOnUse" color-interpolation-filters="sRGB">
<feFlood flood-opacity="0" result="BackgroundImageFix"/>
<feBlend mode="normal" in="SourceGraphic" in2="BackgroundImageFix" result="shape"/>
<feGaussianBlur stdDeviation="6" result="effect1_foregroundBlur"/>
</filter>
<linearGradient id="paint0_linear" x1="1308.03" y1="411" x2="1308.03" y2="574.5" gradientUnits="userSpaceOnUse">
<stop stop-color="white"/>
<stop offset="1" stop-color="white" stop-opacity="0"/>
</linearGradient>
<radialGradient id="paint1_radial" cx="0" cy="0" r="1" gradientUnits="userSpaceOnUse" gradientTransform="translate(26.5986 336.278) rotate(76.5653) scale(90.2676 65.3521)">
<stop stop-color="#2387FF"/>
<stop offset="1" stop-color="#2387FF" stop-opacity="0"/>
</radialGradient>
<radialGradient id="paint2_radial" cx="0" cy="0" r="1" gradientUnits="userSpaceOnUse" gradientTransform="translate(1316.61 207.176) rotate(50.8946) scale(60.4542 181.696)">
<stop stop-color="white"/>
<stop offset="1" stop-color="white" stop-opacity="0"/>
</radialGradient>
<radialGradient id="paint3_radial" cx="0" cy="0" r="1" gradientUnits="userSpaceOnUse" gradientTransform="translate(264.526 553) rotate(52.0558) scale(96.846)">
<stop stop-color="white"/>
<stop offset="1" stop-color="white" stop-opacity="0"/>
</radialGradient>
</defs>
</svg>
