<svg width="1440" height="371" viewBox="0 0 1440 371" fill="none" xmlns="http://www.w3.org/2000/svg">
<rect width="1440" height="371" fill="#2387FF"/>
<mask id="mask0" mask-type="alpha" maskUnits="userSpaceOnUse" x="0" y="0" width="1440" height="371">
<rect width="1440" height="371" fill="#2387FF"/>
</mask>
<g mask="url(#mask0)">
<path d="M1485.48 114.597L1376.04 5.15569L1304.69 -66.1284C1296.39 -74.4263 1285.35 -79 1273.59 -79C1261.83 -79 1250.78 -74.4263 1242.49 -66.1284L1061.76 114.597C1005.83 170.527 974.664 244.882 974.011 323.941C973.357 402.87 1003.15 477.682 1057.9 534.396C1059.15 535.702 1060.45 537.009 1061.76 538.316C1067.25 543.804 1072.93 549.097 1078.68 553.997L1080.58 555.565C1080.64 555.631 1080.64 555.631 1080.71 555.631C1134.48 600.975 1203.02 626 1273.59 626C1353.63 626 1428.9 594.834 1485.41 538.251C1602.3 421.491 1602.3 231.422 1485.48 114.597ZM1072.28 527.797C1071.04 526.555 1069.86 525.314 1068.62 524.072C961.662 413.128 963.295 234.166 1072.28 125.182L1253.07 -55.6089C1258.56 -61.0973 1265.88 -64.1029 1273.65 -64.1029C1281.43 -64.1029 1288.75 -61.0973 1294.23 -55.6089L1342.78 -7.06256C1342.65 -7.06256 1342.52 -6.99722 1342.45 -6.99722C1342 -6.93188 1341.47 -6.86655 1341.02 -6.80121C1340.23 -6.67053 1339.45 -6.60519 1338.6 -6.47452C1338.08 -6.40918 1337.55 -6.2785 1337.03 -6.14783C1336.31 -5.95181 1335.53 -5.82114 1334.81 -5.62512C1334.29 -5.49445 1333.76 -5.29842 1333.24 -5.16775C1332.52 -4.90639 1331.8 -4.71039 1331.08 -4.44903C1330.56 -4.25301 1330.04 -4.057 1329.52 -3.86098C1328.8 -3.53429 1328.14 -3.2076 1327.43 -2.88091C1326.9 -2.61956 1326.45 -2.42355 1325.92 -2.16219C1325.2 -1.77016 1324.55 -1.37814 1323.83 -0.920769C1323.37 -0.659409 1322.92 -0.398056 1322.46 -0.0713654C1321.74 0.45134 1321.02 0.974045 1320.3 1.49675C1319.98 1.7581 1319.58 2.01945 1319.19 2.34615C1318.15 3.19555 1317.1 4.11028 1316.12 5.09035L1134.29 187.123C1057.45 263.961 1057.45 389.018 1134.29 465.856C1134.68 466.248 1135.07 466.64 1135.46 467.032C1136.25 467.816 1137.09 468.665 1137.88 469.384C1138.79 470.234 1139.64 471.083 1140.56 471.867C1168.46 497.218 1204.52 510.613 1242.35 509.698C1279.79 508.718 1315.08 493.429 1341.73 466.64C1343.37 464.941 1345 463.242 1346.57 461.544C1370.16 435.474 1383.49 402.151 1384.2 367.064C1384.27 364.582 1384.27 362.099 1384.2 359.616C1384.14 358.178 1384.07 356.741 1383.94 355.303C1383.88 354.258 1383.88 353.213 1383.75 352.233C1383.62 350.861 1383.49 349.554 1383.35 348.182C1383.22 347.071 1383.16 346.025 1383.03 344.915C1382.83 343.543 1382.64 342.171 1382.37 340.864C1382.18 339.818 1382.05 338.773 1381.92 337.728C1381.66 336.421 1381.39 335.179 1381.13 333.873C1380.87 332.762 1380.68 331.651 1380.48 330.606C1380.22 329.43 1379.89 328.253 1379.57 327.077C1379.24 325.901 1378.98 324.725 1378.65 323.614C1378.32 322.438 1377.93 321.328 1377.61 320.217C1377.21 319.041 1376.89 317.865 1376.49 316.754C1376.1 315.643 1375.64 314.532 1375.25 313.422C1374.8 312.246 1374.4 311.135 1373.95 309.959C1373.49 308.848 1373.03 307.803 1372.57 306.757C1372.12 305.581 1371.59 304.47 1371.07 303.294C1370.61 302.249 1370.03 301.203 1369.5 300.158C1368.98 299.047 1368.46 297.936 1367.87 296.826C1367.28 295.78 1366.69 294.67 1366.11 293.624C1365.52 292.579 1364.99 291.533 1364.34 290.488C1363.69 289.377 1363.03 288.332 1362.32 287.286C1361.73 286.306 1361.14 285.326 1360.49 284.346C1359.77 283.301 1359.05 282.255 1358.33 281.21C1357.68 280.295 1357.02 279.315 1356.37 278.4C1355.59 277.355 1354.74 276.31 1353.95 275.264C1353.23 274.349 1352.58 273.5 1351.86 272.585C1351.01 271.54 1350.1 270.494 1349.18 269.514C1348.46 268.665 1347.75 267.816 1347.03 267.031C1346.05 265.986 1345.07 264.941 1344.09 263.895C1343.37 263.177 1342.71 262.392 1341.93 261.674C1341.73 261.478 1341.54 261.216 1341.28 261.02C1340.95 260.694 1340.56 260.302 1340.23 259.975L1283.98 203.719L1289.79 197.904C1304.82 182.876 1324.81 174.643 1346.05 174.643C1367.28 174.643 1387.28 182.941 1402.3 197.904C1403.81 199.406 1405.24 200.844 1406.68 202.477C1448.69 246.189 1471.82 303.621 1471.82 364.255C1471.82 492.971 1367.09 597.708 1238.37 597.708C1236.67 597.708 1234.97 597.708 1233.27 597.643C1231.51 597.578 1229.74 597.512 1227.92 597.447C1177.47 595.16 1128.86 576.539 1089.86 544.393L1088.16 542.955C1082.93 538.055 1077.57 533.024 1072.28 527.797ZM1273.59 214.042L1329.84 270.298C1330.1 270.56 1330.43 270.886 1330.69 271.148L1330.82 271.278C1330.95 271.409 1331.02 271.474 1331.15 271.605L1331.28 271.736C1361.21 303.229 1360.55 351.971 1329.84 382.68C1314.82 397.708 1294.89 405.941 1273.65 405.941C1252.42 405.941 1232.42 397.708 1217.4 382.68C1202.37 367.652 1194.14 347.724 1194.14 326.424C1194.14 305.189 1202.43 285.196 1217.4 270.233L1273.59 214.042ZM1474.89 527.797C1421.12 581.57 1349.64 611.168 1273.59 611.168C1270.38 611.168 1267.18 611.103 1263.98 611.037C1265.94 610.841 1267.97 610.58 1269.93 610.384C1270.58 610.319 1271.23 610.188 1271.89 610.123C1273.19 609.927 1274.57 609.731 1275.87 609.535C1276.72 609.404 1277.51 609.273 1278.36 609.143C1279.53 608.947 1280.64 608.751 1281.82 608.555C1282.73 608.424 1283.58 608.228 1284.5 608.032C1285.54 607.836 1286.65 607.64 1287.7 607.444C1288.61 607.248 1289.53 607.052 1290.44 606.856C1291.49 606.66 1292.47 606.398 1293.51 606.203C1294.43 606.006 1295.41 605.745 1296.32 605.549C1297.3 605.288 1298.35 605.092 1299.33 604.83C1300.24 604.569 1301.22 604.373 1302.14 604.112C1303.12 603.85 1304.1 603.589 1305.08 603.328C1305.99 603.066 1306.97 602.805 1307.89 602.544C1308.87 602.282 1309.78 601.956 1310.76 601.694C1311.68 601.433 1312.66 601.106 1313.57 600.845C1314.49 600.518 1315.47 600.257 1316.38 599.93C1317.3 599.603 1318.28 599.277 1319.19 599.015C1320.11 598.689 1321.02 598.362 1321.94 598.035C1322.85 597.708 1323.77 597.382 1324.75 597.055C1325.66 596.728 1326.58 596.402 1327.49 596.01C1328.41 595.683 1329.32 595.291 1330.3 594.899C1331.21 594.572 1332.06 594.18 1332.98 593.788C1333.89 593.396 1334.81 593.004 1335.72 592.612C1336.57 592.22 1337.49 591.828 1338.34 591.436C1339.25 591.044 1340.17 590.652 1341.08 590.195C1341.93 589.803 1342.78 589.411 1343.63 589.018C1344.54 588.561 1345.46 588.169 1346.37 587.712C1347.16 587.32 1347.94 586.928 1348.79 586.536C1350.75 585.556 1352.71 584.576 1354.61 583.53C1355.26 583.203 1355.91 582.877 1356.57 582.485C1357.48 581.962 1358.4 581.439 1359.31 580.982C1360.09 580.525 1360.88 580.133 1361.66 579.675C1362.58 579.152 1363.43 578.63 1364.34 578.107C1365.13 577.65 1365.91 577.192 1366.69 576.735C1367.54 576.212 1368.46 575.624 1369.31 575.101C1370.09 574.644 1370.88 574.121 1371.59 573.664C1372.44 573.141 1373.29 572.553 1374.14 571.965C1374.93 571.443 1375.64 570.985 1376.43 570.462C1377.28 569.874 1378.13 569.286 1378.98 568.764C1379.7 568.241 1380.48 567.718 1381.2 567.196C1382.05 566.607 1382.83 566.019 1383.68 565.431C1384.4 564.909 1385.18 564.386 1385.9 563.798C1386.75 563.21 1387.54 562.557 1388.32 561.968C1389.04 561.446 1389.76 560.858 1390.48 560.335C1391.26 559.682 1392.04 559.094 1392.89 558.44C1393.61 557.852 1394.33 557.329 1395.05 556.741C1395.83 556.088 1396.62 555.435 1397.4 554.781C1398.12 554.193 1398.77 553.605 1399.49 553.017C1400.28 552.364 1401.06 551.71 1401.78 551.057C1402.43 550.469 1403.15 549.881 1403.81 549.227C1404.59 548.574 1405.31 547.855 1406.09 547.202C1406.75 546.614 1407.4 545.961 1408.05 545.372C1408.77 544.654 1409.56 544 1410.27 543.282C1410.93 542.628 1411.58 542.04 1412.23 541.387C1412.95 540.668 1413.67 539.949 1414.39 539.231C1415.04 538.577 1415.63 537.924 1416.29 537.271C1417 536.552 1417.72 535.833 1418.44 535.049C1419.03 534.396 1419.62 533.742 1420.27 533.089C1421.64 531.586 1423.02 530.149 1424.32 528.646C1424.91 527.993 1425.5 527.339 1426.09 526.62C1426.74 525.902 1427.39 525.118 1428.05 524.334C1428.63 523.615 1429.29 522.896 1429.88 522.177C1430.53 521.393 1431.12 520.675 1431.77 519.891C1432.36 519.172 1432.95 518.453 1433.53 517.669C1434.12 516.885 1434.71 516.101 1435.36 515.317C1435.95 514.533 1436.54 513.814 1437.13 513.03C1437.72 512.246 1438.3 511.462 1438.89 510.678C1439.48 509.894 1440 509.11 1440.59 508.391C1441.18 507.607 1441.7 506.823 1442.29 505.974C1442.81 505.19 1443.4 504.405 1443.92 503.621C1444.45 502.837 1445.03 501.988 1445.56 501.204C1446.08 500.42 1446.6 499.57 1447.13 498.786C1447.65 498.002 1448.17 497.153 1448.69 496.369C1449.22 495.519 1449.74 494.735 1450.26 493.886C1450.78 493.037 1451.24 492.253 1451.76 491.403C1452.29 490.554 1452.74 489.704 1453.27 488.855C1453.72 488.006 1454.25 487.221 1454.7 486.372C1455.16 485.523 1455.68 484.673 1456.14 483.759C1456.6 482.909 1457.06 482.125 1457.51 481.276C1457.97 480.426 1458.43 479.512 1458.89 478.597C1459.34 477.747 1459.74 476.963 1460.19 476.114C1460.65 475.199 1461.11 474.284 1461.56 473.37C1461.96 472.52 1462.41 471.736 1462.81 470.887C1463.26 469.907 1463.72 468.992 1464.18 468.012C1464.57 467.228 1464.96 466.379 1465.29 465.594C1465.75 464.549 1466.2 463.504 1466.66 462.458C1466.99 461.74 1467.31 460.956 1467.64 460.237C1468.23 458.865 1468.75 457.493 1469.34 456.186C1469.6 455.532 1469.86 454.879 1470.12 454.226C1470.78 452.592 1471.37 451.024 1471.95 449.391C1472.21 448.672 1472.48 448.019 1472.67 447.3C1473.06 446.124 1473.52 445.013 1473.91 443.837C1474.18 443.053 1474.44 442.269 1474.7 441.419C1475.02 440.374 1475.42 439.263 1475.74 438.218C1476 437.368 1476.27 436.519 1476.53 435.735C1476.85 434.69 1477.18 433.644 1477.44 432.533C1477.7 431.684 1477.9 430.835 1478.16 429.92C1478.42 428.874 1478.75 427.829 1479.01 426.784C1479.27 425.934 1479.47 425.019 1479.66 424.17C1479.92 423.125 1480.19 422.079 1480.45 421.034C1480.64 420.119 1480.84 419.27 1481.04 418.355C1481.3 417.31 1481.49 416.264 1481.75 415.153C1481.95 414.239 1482.15 413.324 1482.28 412.474C1482.47 411.429 1482.67 410.318 1482.87 409.273C1483.06 408.358 1483.19 407.443 1483.32 406.529C1483.52 405.418 1483.71 404.373 1483.85 403.262C1483.98 402.347 1484.11 401.432 1484.24 400.518C1484.37 399.407 1484.56 398.296 1484.69 397.185C1484.83 396.271 1484.96 395.356 1485.02 394.506C1485.15 393.396 1485.28 392.285 1485.41 391.109C1485.48 390.194 1485.61 389.345 1485.67 388.43C1485.81 387.254 1485.87 386.078 1486 384.967C1486.07 384.118 1486.13 383.268 1486.2 382.354C1486.26 381.112 1486.33 379.936 1486.46 378.695C1486.52 377.845 1486.59 377.061 1486.59 376.212C1486.65 374.84 1486.72 373.468 1486.72 372.095C1486.72 371.442 1486.79 370.723 1486.79 370.07C1486.85 367.979 1486.85 365.954 1486.85 363.863C1486.85 299.374 1462.22 238.283 1417.66 191.892C1416.15 190.259 1414.59 188.626 1412.95 186.992C1395.12 169.285 1371.4 159.485 1346.18 159.485C1343.04 159.485 1339.9 159.615 1336.77 159.942C1315.08 162.033 1294.95 171.507 1279.4 187.123L1206.88 259.714C1189.04 277.551 1179.24 301.269 1179.24 326.489C1179.24 351.71 1189.04 375.428 1206.88 393.265C1224.71 411.102 1248.43 420.903 1273.65 420.903C1298.87 420.903 1322.59 411.102 1340.43 393.265C1355.06 378.629 1364.34 359.943 1367.15 339.753C1367.15 339.884 1367.22 339.949 1367.22 340.08C1367.41 341.321 1367.61 342.563 1367.8 343.804C1367.94 344.719 1368.13 345.699 1368.26 346.613C1368.46 347.986 1368.59 349.292 1368.72 350.664C1368.78 351.514 1368.92 352.363 1368.98 353.278C1369.11 354.846 1369.18 356.414 1369.24 357.982C1369.24 358.636 1369.31 359.354 1369.37 360.008C1369.44 362.295 1369.44 364.516 1369.44 366.803C1368 436.78 1312.07 493.037 1242.09 494.866C1235.76 495.062 1229.42 494.735 1223.21 494.017C1196.29 490.815 1171.07 479.381 1150.69 460.89C1150.29 460.498 1149.9 460.171 1149.51 459.779C1149.12 459.387 1148.73 459.061 1148.33 458.669C1147.55 457.95 1146.76 457.166 1146.05 456.382L1145.72 456.12C1145.46 455.859 1145.2 455.663 1144.94 455.402C1142.71 453.18 1140.56 450.893 1138.47 448.607C1138.47 448.607 1138.47 448.607 1138.47 448.541C1076.07 379.413 1076.07 273.631 1138.47 204.503C1138.47 204.503 1138.47 204.503 1138.47 204.437C1140.56 202.151 1142.71 199.864 1144.94 197.642L1326.71 15.7405C1327.36 15.0871 1328.08 14.4337 1328.8 13.8457C1329.06 13.6497 1329.32 13.4537 1329.58 13.2576C1330.04 12.9309 1330.5 12.5389 1331.02 12.2122C1331.41 11.9509 1331.8 11.7549 1332.26 11.4935C1332.65 11.2975 1332.98 11.0361 1333.37 10.8401C1333.76 10.6441 1334.22 10.4481 1334.61 10.2521C1335 10.0561 1335.4 9.86005 1335.79 9.66403C1336.18 9.46802 1336.64 9.33735 1337.1 9.20667C1337.49 9.07599 1337.88 8.87998 1338.34 8.74931C1338.79 8.61863 1339.25 8.55328 1339.71 8.42261C1340.1 8.29193 1340.49 8.22659 1340.95 8.09592C1341.41 8.03058 1341.87 7.96524 1342.39 7.8999C1342.78 7.83456 1343.17 7.76923 1343.56 7.70389C1344.09 7.63855 1344.54 7.63855 1345.07 7.63855C1345.46 7.63855 1345.79 7.57321 1346.18 7.57321C1346.7 7.57321 1347.16 7.63855 1347.68 7.63855C1348.07 7.63855 1348.46 7.63855 1348.86 7.70389C1349.38 7.76923 1349.84 7.83456 1350.36 7.8999C1350.75 7.96524 1351.14 7.96524 1351.47 8.03058C1351.99 8.09592 1352.45 8.29193 1352.91 8.35727C1353.3 8.42261 1353.63 8.48795 1354.02 8.61862C1354.48 8.7493 1355 8.94531 1355.46 9.14133C1355.85 9.272 1356.17 9.40269 1356.57 9.53336C1357.02 9.72938 1357.48 9.92539 1357.87 10.1214C1358.26 10.3174 1358.59 10.4481 1358.98 10.6441C1359.38 10.8401 1359.77 11.1015 1360.23 11.3628C1360.62 11.5588 1360.94 11.7549 1361.34 12.0162C1361.73 12.2776 1362.05 12.5389 1362.45 12.8656C1362.84 13.127 1363.17 13.3883 1363.56 13.6497C1363.88 13.911 1364.21 14.2377 1364.54 14.5644C1364.93 14.8911 1365.26 15.2178 1365.65 15.5445L1475.09 124.986C1585.9 236.192 1585.9 416.787 1474.89 527.797Z" fill="url(#paint0_linear)"/>
</g>
<defs>
<linearGradient id="paint0_linear" x1="1273.54" y1="-79" x2="1273.54" y2="626" gradientUnits="userSpaceOnUse">
<stop stop-color="#136CD8"/>
<stop offset="1" stop-color="#136CD8" stop-opacity="0"/>
</linearGradient>
</defs>
</svg>
