<svg width="41" height="41" viewBox="0 0 41 41" fill="none" xmlns="http://www.w3.org/2000/svg">
<path d="M20.0061 18.3389C21.325 18.3389 22.6143 17.9478 23.711 17.215C24.8077 16.4823 25.6624 15.4408 26.1671 14.2222C26.6719 13.0037 26.8039 11.6628 26.5466 10.3692C26.2893 9.07562 25.6542 7.88737 24.7216 6.95474C23.7889 6.02211 22.6007 5.38698 21.3071 5.12967C20.0135 4.87235 18.6726 5.00442 17.4541 5.50915C16.2355 6.01389 15.194 6.86863 14.4613 7.96529C13.7285 9.06195 13.3374 10.3513 13.3374 11.6702C13.3374 13.4389 14.04 15.1351 15.2906 16.3857C16.5412 17.6363 18.2374 18.3389 20.0061 18.3389ZM20.0061 8.33587C20.6656 8.33587 21.3102 8.53143 21.8585 8.89781C22.4069 9.26419 22.8342 9.78494 23.0866 10.3942C23.339 11.0035 23.405 11.6739 23.2764 12.3207C23.1477 12.9675 22.8301 13.5616 22.3638 14.0279C21.8975 14.4943 21.3034 14.8118 20.6566 14.9405C20.0098 15.0691 19.3394 15.0031 18.7301 14.7507C18.1208 14.4984 17.6001 14.071 17.2337 13.5227C16.8673 12.9743 16.6717 12.3297 16.6717 11.6702C16.6717 10.7859 17.023 9.93779 17.6484 9.31248C18.2737 8.68717 19.1218 8.33587 20.0061 8.33587Z" fill="black"/>
<path d="M20.0061 21.6733C16.9109 21.6733 13.9426 22.9028 11.754 25.0914C9.56541 27.28 8.33588 30.2483 8.33588 33.3435C8.33588 33.7856 8.51152 34.2097 8.82418 34.5223C9.13684 34.835 9.56089 35.0106 10.003 35.0106C10.4452 35.0106 10.8693 34.835 11.1819 34.5223C11.4946 34.2097 11.6702 33.7856 11.6702 33.3435C11.6702 31.1327 12.5485 29.0124 14.1117 27.4491C15.675 25.8859 17.7953 25.0076 20.0061 25.0076C22.2169 25.0076 24.3371 25.8859 25.9004 27.4491C27.4637 29.0124 28.3419 31.1327 28.3419 33.3435C28.3419 33.7856 28.5176 34.2097 28.8302 34.5223C29.1429 34.835 29.5669 35.0106 30.0091 35.0106C30.4513 35.0106 30.8753 34.835 31.188 34.5223C31.5006 34.2097 31.6763 33.7856 31.6763 33.3435C31.6763 30.2483 30.4467 27.28 28.2581 25.0914C26.0696 22.9028 23.1012 21.6733 20.0061 21.6733Z" fill="black"/>
</svg>
