<svg width="41" height="41" viewBox="0 0 41 41" fill="none" xmlns="http://www.w3.org/2000/svg">
<path d="M25.0075 26.6748H15.0045C14.5624 26.6748 14.1383 26.8505 13.8256 27.1631C13.513 27.4758 13.3373 27.8998 13.3373 28.342C13.3373 28.7841 13.513 29.2082 13.8256 29.5208C14.1383 29.8335 14.5624 30.0091 15.0045 30.0091H25.0075C25.4497 30.0091 25.8737 29.8335 26.1864 29.5208C26.4991 29.2082 26.6747 28.7841 26.6747 28.342C26.6747 27.8998 26.4991 27.4758 26.1864 27.1631C25.8737 26.8505 25.4497 26.6748 25.0075 26.6748Z" fill="black"/>
<path d="M15.0045 23.3403H20.006C20.4482 23.3403 20.8722 23.1647 21.1849 22.852C21.4975 22.5394 21.6732 22.1153 21.6732 21.6732C21.6732 21.231 21.4975 20.8069 21.1849 20.4943C20.8722 20.1816 20.4482 20.006 20.006 20.006H15.0045C14.5624 20.006 14.1383 20.1816 13.8256 20.4943C13.513 20.8069 13.3373 21.231 13.3373 21.6732C13.3373 22.1153 13.513 22.5394 13.8256 22.852C14.1383 23.1647 14.5624 23.3403 15.0045 23.3403Z" fill="black"/>
<path d="M32.91 13.8876L23.8406 3.88457C23.6847 3.71187 23.4944 3.57369 23.2819 3.47894C23.0695 3.38419 22.8395 3.33496 22.6069 3.33441H10.9367C10.3827 3.3278 9.83295 3.43037 9.31867 3.63626C8.80439 3.84215 8.33571 4.14732 7.93939 4.53436C7.54306 4.92139 7.22686 5.38271 7.00883 5.89196C6.79081 6.40121 6.67523 6.94841 6.6687 7.50233V32.5099C6.67523 33.0638 6.79081 33.611 7.00883 34.1203C7.22686 34.6295 7.54306 35.0908 7.93939 35.4779C8.33571 35.8649 8.80439 36.1701 9.31867 36.376C9.83295 36.5819 10.3827 36.6844 10.9367 36.6778H29.0755C29.6294 36.6844 30.1792 36.5819 30.6935 36.376C31.2077 36.1701 31.6764 35.8649 32.0727 35.4779C32.4691 35.0908 32.7853 34.6295 33.0033 34.1203C33.2213 33.611 33.3369 33.0638 33.3434 32.5099V15.0046C33.3424 14.5914 33.1879 14.1934 32.91 13.8876ZM23.3404 8.33592L27.9085 13.3374H24.5741C24.3995 13.3269 24.2288 13.2817 24.0719 13.2044C23.9149 13.1272 23.775 13.0195 23.6601 12.8876C23.5453 12.7557 23.4579 12.6022 23.403 12.4361C23.3481 12.27 23.3268 12.0947 23.3404 11.9203V8.33592ZM29.0755 33.3435H10.9367C10.8206 33.3502 10.7043 33.334 10.5945 33.2958C10.4847 33.2575 10.3836 33.1979 10.2968 33.1205C10.2101 33.043 10.1395 32.9492 10.0891 32.8445C10.0387 32.7397 10.0094 32.626 10.003 32.5099V7.50233C10.0094 7.38624 10.0387 7.27254 10.0891 7.16776C10.1395 7.06298 10.2101 6.96919 10.2968 6.89175C10.3836 6.8143 10.4847 6.75474 10.5945 6.71648C10.7043 6.67821 10.8206 6.66199 10.9367 6.66875H20.0061V11.9203C19.9792 13.1484 20.4391 14.3373 21.2856 15.2275C22.132 16.1176 23.2962 16.6368 24.5241 16.6718H30.0091V32.5099C30.0027 32.626 29.9735 32.7397 29.9231 32.8445C29.8726 32.9492 29.8021 33.043 29.7153 33.1205C29.6286 33.1979 29.5274 33.2575 29.4176 33.2958C29.3078 33.334 29.1916 33.3502 29.0755 33.3435Z" fill="black"/>
</svg>
