<svg width="75" height="88" viewBox="0 0 75 88" fill="none" xmlns="http://www.w3.org/2000/svg">
<rect x="24.112" y="20.3552" width="50.888" height="67.5422" rx="5" fill="#DCE1E7"/>
<path fill-rule="evenodd" clip-rule="evenodd" d="M56.0691 0H4.53241C2.44545 0 0.747681 1.69777 0.747681 3.78473V73.3593C0.747681 75.4462 2.44545 77.144 4.53241 77.144H44.4734C44.7937 77.144 45.1009 77.0168 45.3274 76.7902L59.5 62.6175C59.7267 62.3911 59.8538 62.0839 59.8538 61.7635V3.78473C59.8538 1.69777 58.1561 0 56.0691 0ZM45.6812 73.0201V64.3403C45.6812 63.5855 46.2953 62.9713 47.0502 62.9713H55.7299L45.6812 73.0201ZM57.4381 60.5556H47.0502C44.9632 60.5556 43.2655 62.2534 43.2655 64.3403V74.7283H4.53241C3.77754 74.7283 3.1634 74.1141 3.1634 73.3593V3.78473C3.1634 3.02986 3.77754 2.41572 4.53241 2.41572H56.0691C56.824 2.41572 57.4381 3.02986 57.4381 3.78473V60.5556ZM12.2629 12.7231H16.2087V24.3994C16.2087 25.0665 16.7495 25.6074 17.4167 25.6074C18.0838 25.6074 18.6246 25.0666 18.6246 24.3994V12.7231H22.5704C23.2374 12.7231 23.7783 12.1824 23.7783 11.5152C23.7783 10.848 23.2376 10.3073 22.5704 10.3073H12.2631C11.5961 10.3073 11.0552 10.848 11.0552 11.5152C11.0552 12.1824 11.5959 12.7231 12.2629 12.7231ZM25.0156 24.7466C24.824 25.3854 24.1506 25.7484 23.5116 25.5563C22.8725 25.3646 22.51 24.6913 22.7015 24.0523L26.2914 12.0862C26.6106 11.0222 27.5715 10.3073 28.6824 10.3073H29.342C30.4529 10.3073 31.4138 11.0222 31.733 12.0862L35.3229 24.0523C35.5147 24.6913 35.1521 25.3646 34.5132 25.5563C34.3974 25.591 34.2804 25.6075 34.1656 25.6075C33.646 25.6075 33.1661 25.2697 33.0091 24.7464L32.4942 23.0304H25.5303L25.0156 24.7466ZM28.6825 12.723C28.6473 12.723 28.6155 12.7466 28.6054 12.7804L26.2551 20.6146H31.7695L29.4193 12.7804C29.4092 12.7465 29.3774 12.723 29.3422 12.723H28.6825ZM48.0397 23.7067L44.0149 17.9574L48.0397 12.2081C48.4222 11.6616 48.2893 10.9084 47.7429 10.5258C47.1964 10.1433 46.4432 10.276 46.0606 10.8226L42.5406 15.8512L39.0206 10.8226C38.6381 10.276 37.8847 10.1431 37.3384 10.5258C36.7917 10.9084 36.6588 11.6616 37.0415 12.2081L41.0663 17.9574L37.0418 23.7067C36.6593 24.2532 36.7922 25.0064 37.3387 25.389C37.5495 25.5367 37.7911 25.6073 38.0303 25.6073C38.411 25.6073 38.7859 25.4277 39.0208 25.092L42.5408 20.0635L46.0608 25.092C46.2958 25.4277 46.6705 25.6073 47.0513 25.6073C47.2904 25.6073 47.5322 25.5365 47.7429 25.389C48.2893 25.0064 48.4224 24.2532 48.0397 23.7067ZM12.263 34.6262H9.68617C9.01899 34.6262 8.47823 34.0854 8.47823 33.4183C8.47823 32.7511 9.01915 32.2103 9.68617 32.2103H12.263C12.9301 32.2103 13.4709 32.7511 13.4709 33.4183C13.4709 34.0854 12.93 34.6262 12.263 34.6262ZM9.68617 39.7799H12.263C12.93 39.7799 13.4709 39.2392 13.4709 38.572C13.4709 37.905 12.9301 37.3641 12.263 37.3641H9.68617C9.01915 37.3641 8.47823 37.9048 8.47823 38.572C8.47823 39.239 9.01899 39.7799 9.68617 39.7799ZM12.263 44.9335H9.68617C9.01899 44.9335 8.47823 44.3927 8.47823 43.7255C8.47823 43.0583 9.01915 42.5176 9.68617 42.5176H12.263C12.9301 42.5176 13.4709 43.0585 13.4709 43.7255C13.4709 44.3927 12.93 44.9335 12.263 44.9335ZM50.9154 32.2104H48.3386C47.6716 32.2104 47.1307 32.7512 47.1307 33.4184C47.1307 34.0856 47.6714 34.6263 48.3386 34.6263H50.9154C51.5824 34.6263 52.1233 34.0856 52.1233 33.4184C52.1233 32.7512 51.5826 32.2104 50.9154 32.2104ZM48.3386 37.3641H50.9154C51.5826 37.3641 52.1233 37.905 52.1233 38.572C52.1233 39.2392 51.5824 39.7799 50.9154 39.7799H48.3386C47.6714 39.7799 47.1307 39.239 47.1307 38.572C47.1307 37.9048 47.6716 37.3641 48.3386 37.3641ZM50.9154 42.5178H48.3386C47.6716 42.5178 47.1307 43.0586 47.1307 43.7257C47.1307 44.3928 47.6714 44.9337 48.3386 44.9337H50.9154C51.5824 44.9337 52.1233 44.3929 52.1233 43.7257C52.1233 43.0586 51.5826 42.5178 50.9154 42.5178ZM17.4167 32.2104H32.8776C33.5447 32.2104 34.0856 32.7512 34.0856 33.4184C34.0856 34.0856 33.5447 34.6263 32.8777 34.6263H17.4167C16.7495 34.6263 16.2087 34.0856 16.2087 33.4184C16.2087 32.7512 16.7496 32.2104 17.4167 32.2104ZM17.4167 39.7799H27.724C28.391 39.7799 28.9319 39.2392 28.9319 38.572C28.9319 37.905 28.3911 37.3641 27.724 37.3641H17.4167C16.7496 37.3641 16.2087 37.9048 16.2087 38.572C16.2087 39.239 16.7495 39.7799 17.4167 39.7799ZM32.8776 42.5178C33.5447 42.5178 34.0855 43.0587 34.0855 43.7257C34.0855 44.3928 33.5447 44.9335 32.8777 44.9337H17.4167C16.7495 44.9337 16.2087 44.3928 16.2087 43.7257C16.2087 43.0586 16.7496 42.5178 17.4167 42.5178H32.8776ZM16.2088 55.5629C16.2088 56.23 16.7495 56.7709 17.4167 56.7709C18.0839 56.7709 18.6246 56.2301 18.6246 55.5629C18.6246 53.6368 17.0022 52.0677 14.7594 51.6479V51.4561C14.7594 50.7891 14.2187 50.2481 13.5515 50.2481C12.8845 50.2481 12.3436 50.7889 12.3436 51.4561V51.6479C10.1008 52.0677 8.47838 53.6368 8.47838 55.5629C8.47838 58.2542 10.6277 59.3853 12.3436 60.0364V64.234C11.4536 63.9423 10.8941 63.3549 10.8941 62.8106C10.8941 62.1435 10.3533 61.6026 9.68617 61.6026C9.01915 61.6026 8.47823 62.1434 8.47823 62.8106C8.47823 64.7367 10.1007 66.3058 12.3434 66.7256V66.9174C12.3434 67.5844 12.8842 68.1254 13.5514 68.1254C14.2184 68.1254 14.7593 67.5846 14.7593 66.9174V66.7256C17.002 66.3058 18.6245 64.7367 18.6245 62.8106C18.6245 60.1193 16.4751 58.9882 14.7593 58.3371V54.1395C15.6492 54.4312 16.2088 55.0184 16.2088 55.5629ZM12.3434 57.4008C11.1392 56.8108 10.894 56.2954 10.894 55.5629C10.894 55.0184 11.4534 54.4312 12.3434 54.1395V57.4008ZM16.2088 62.8103C16.2088 63.3548 15.6493 63.942 14.7593 64.2337V60.9724C15.9635 61.5625 16.2088 62.0778 16.2088 62.8103ZM21.3623 54.033C21.3623 53.3658 21.9032 52.8251 22.5702 52.8251H31.5892C32.2563 52.8251 32.7971 53.366 32.7971 54.033C32.7971 54.7002 32.2562 55.2409 31.5892 55.2409H22.5702C21.9031 55.2409 21.3623 54.7 21.3623 54.033ZM27.724 63.1323H22.5702C21.9032 63.1323 21.3623 63.6731 21.3623 64.3403C21.3623 65.0073 21.9031 65.5482 22.5702 65.5482H27.724C28.391 65.5482 28.9319 65.0074 28.9319 64.3403C28.9318 63.6732 28.391 63.1323 27.724 63.1323ZM32.8777 63.1323H35.4545C36.1215 63.1323 36.6623 63.6732 36.6624 64.3403C36.6624 65.0074 36.1215 65.5482 35.4545 65.5482H32.8777C32.2105 65.5482 31.6698 65.0073 31.6698 64.3403C31.6698 63.6731 32.2107 63.1323 32.8777 63.1323ZM39.3197 57.9788H22.5702C21.9032 57.9788 21.3623 58.5196 21.3623 59.1867C21.3623 59.8538 21.9031 60.3947 22.5702 60.3947H39.3197C39.9867 60.3947 40.5276 59.8539 40.5276 59.1867C40.5276 58.5196 39.9867 57.9788 39.3197 57.9788ZM34.0855 38.572C34.0855 39.2391 33.5447 39.7799 32.8775 39.7799C32.2104 39.7799 31.6696 39.2391 31.6696 38.572C31.6696 37.9049 32.2104 37.3641 32.8775 37.3641C33.5447 37.3641 34.0855 37.9049 34.0855 38.572ZM38.0313 39.7799C38.6984 39.7799 39.2392 39.2391 39.2392 38.572C39.2392 37.9049 38.6984 37.3641 38.0313 37.3641C37.3642 37.3641 36.8233 37.9049 36.8233 38.572C36.8233 39.2391 37.3642 39.7799 38.0313 39.7799ZM44.3928 38.572C44.3928 39.2391 43.852 39.7799 43.1849 39.7799C42.5177 39.7799 41.9769 39.2391 41.9769 38.572C41.9769 37.9049 42.5177 37.3641 43.1849 37.3641C43.852 37.3641 44.3928 37.9049 44.3928 38.572ZM38.0313 34.6262C38.6984 34.6262 39.2392 34.0854 39.2392 33.4183C39.2392 32.7511 38.6984 32.2103 38.0313 32.2103C37.3642 32.2103 36.8233 32.7511 36.8233 33.4183C36.8233 34.0854 37.3642 34.6262 38.0313 34.6262ZM44.3928 33.4183C44.3928 34.0854 43.852 34.6262 43.1849 34.6262C42.5177 34.6262 41.9769 34.0854 41.9769 33.4183C41.9769 32.7511 42.5177 32.2103 43.1849 32.2103C43.852 32.2103 44.3928 32.7511 44.3928 33.4183ZM38.0313 44.9337C38.6984 44.9337 39.2392 44.3929 39.2392 43.7257C39.2392 43.0586 38.6984 42.5178 38.0313 42.5178C37.3642 42.5178 36.8233 43.0586 36.8233 43.7257C36.8233 44.3929 37.3642 44.9337 38.0313 44.9337ZM44.3928 43.7257C44.3928 44.3929 43.852 44.9337 43.1849 44.9337C42.5177 44.9337 41.9769 44.3929 41.9769 43.7257C41.9769 43.0586 42.5177 42.5178 43.1849 42.5178C43.852 42.5178 44.3928 43.0586 44.3928 43.7257Z" fill="url(#paint0_linear)"/>
<defs>
<linearGradient id="paint0_linear" x1="60.1962" y1="-1.22628e-06" x2="0.981138" y2="76.7946" gradientUnits="userSpaceOnUse">
<stop stop-color="#80B9FF"/>
<stop offset="0.463542" stop-color="#2387FF"/>
<stop offset="1" stop-color="#136CD8"/>
</linearGradient>
</defs>
</svg>
