<svg width="41" height="41" viewBox="0 0 41 41" fill="none" xmlns="http://www.w3.org/2000/svg">
<path d="M15.0046 18.3389C16.3235 18.3389 17.6128 17.9478 18.7095 17.215C19.8061 16.4823 20.6609 15.4408 21.1656 14.2222C21.6704 13.0037 21.8024 11.6628 21.5451 10.3692C21.2878 9.07562 20.6527 7.88737 19.72 6.95474C18.7874 6.02211 17.5991 5.38698 16.3056 5.12967C15.012 4.87235 13.6711 5.00442 12.4526 5.50915C11.234 6.01389 10.1925 6.86863 9.45975 7.96529C8.72698 9.06195 8.33587 10.3513 8.33587 11.6702C8.33587 13.4389 9.03846 15.1351 10.2891 16.3857C11.5397 17.6363 13.2359 18.3389 15.0046 18.3389ZM15.0046 8.33587C15.664 8.33587 16.3087 8.53143 16.857 8.89781C17.4053 9.26419 17.8327 9.78494 18.0851 10.3942C18.3375 11.0035 18.4035 11.6739 18.2748 12.3207C18.1462 12.9675 17.8286 13.5616 17.3623 14.0279C16.896 14.4943 16.3019 14.8118 15.6551 14.9405C15.0083 15.0691 14.3378 15.0031 13.7286 14.7507C13.1193 14.4984 12.5985 14.071 12.2322 13.5227C11.8658 12.9743 11.6702 12.3297 11.6702 11.6702C11.6702 10.7859 12.0215 9.93779 12.6468 9.31248C13.2721 8.68717 14.1202 8.33587 15.0046 8.33587Z" fill="black"/>
<path d="M28.3419 21.6733C29.3311 21.6733 30.2981 21.3799 31.1206 20.8303C31.9431 20.2808 32.5842 19.4996 32.9627 18.5857C33.3413 17.6718 33.4403 16.6662 33.2473 15.696C33.0543 14.7258 32.578 13.8346 31.8785 13.1351C31.179 12.4357 30.2879 11.9593 29.3177 11.7663C28.3475 11.5733 27.3418 11.6724 26.4279 12.0509C25.514 12.4295 24.7329 13.0706 24.1833 13.893C23.6337 14.7155 23.3404 15.6825 23.3404 16.6717C23.3404 17.9982 23.8673 19.2704 24.8053 20.2083C25.7433 21.1463 27.0154 21.6733 28.3419 21.6733ZM28.3419 15.0046C28.6717 15.0046 28.994 15.1023 29.2681 15.2855C29.5423 15.4687 29.756 15.7291 29.8822 16.0337C30.0084 16.3384 30.0414 16.6736 29.9771 16.997C29.9127 17.3204 29.7539 17.6175 29.5208 17.8506C29.2876 18.0838 28.9906 18.2426 28.6672 18.3069C28.3438 18.3712 28.0086 18.3382 27.7039 18.212C27.3993 18.0858 27.1389 17.8721 26.9557 17.598C26.7725 17.3238 26.6747 17.0015 26.6747 16.6717C26.6747 16.2296 26.8504 15.8055 27.163 15.4929C27.4757 15.1802 27.8998 15.0046 28.3419 15.0046Z" fill="black"/>
<path d="M28.3419 23.3404C26.4944 23.3425 24.6999 23.9582 23.2404 25.0909C21.6074 23.4644 19.5293 22.3578 17.2683 21.9107C15.0072 21.4636 12.6644 21.6961 10.5352 22.5787C8.40612 23.4614 6.58603 24.9548 5.30452 26.8705C4.02302 28.7863 3.33748 31.0386 3.33436 33.3434C3.33436 33.7856 3.51001 34.2097 3.82266 34.5223C4.13532 34.835 4.55937 35.0106 5.00153 35.0106C5.44369 35.0106 5.86774 34.835 6.1804 34.5223C6.49305 34.2097 6.6687 33.7856 6.6687 33.3434C6.6687 31.1326 7.54694 29.0124 9.11022 27.4491C10.6735 25.8858 12.7937 25.0076 15.0046 25.0076C17.2154 25.0076 19.3356 25.8858 20.8989 27.4491C22.4622 29.0124 23.3404 31.1326 23.3404 33.3434C23.3404 33.7856 23.5161 34.2097 23.8287 34.5223C24.1414 34.835 24.5654 35.0106 25.0076 35.0106C25.4497 35.0106 25.8738 34.835 26.1864 34.5223C26.4991 34.2097 26.6748 33.7856 26.6748 33.3434C26.6787 31.3902 26.1853 29.4682 25.241 27.7584C25.9777 27.1762 26.8635 26.8132 27.797 26.7109C28.7304 26.6086 29.6738 26.7711 30.5192 27.1799C31.3646 27.5886 32.0778 28.2272 32.5773 29.0223C33.0767 29.8175 33.3422 30.7372 33.3434 31.6763C33.3434 32.1184 33.5191 32.5425 33.8317 32.8551C34.1444 33.1678 34.5684 33.3434 35.0106 33.3434C35.4528 33.3434 35.8768 33.1678 36.1895 32.8551C36.5021 32.5425 36.6778 32.1184 36.6778 31.6763C36.6778 29.4655 35.7995 27.3452 34.2363 25.7819C32.673 24.2187 30.5527 23.3404 28.3419 23.3404Z" fill="black"/>
</svg>
