<svg width="95" height="84" viewBox="0 0 95 84" fill="none" xmlns="http://www.w3.org/2000/svg">
<circle cx="65.8776" cy="29.765" r="28.5" fill="#DCE1E7"/>
<path fill-rule="evenodd" clip-rule="evenodd" d="M61.0971 30.5486C61.0971 31.5498 61.0445 32.5542 60.9476 33.5497C73.5283 34.8305 83.3776 45.4862 83.3776 58.3992C83.3776 72.1723 72.1723 83.3776 58.3992 83.3776C45.4862 83.3776 34.8305 73.5283 33.5497 60.9477C32.5542 61.0446 31.55 61.0972 30.5486 61.0972C13.7041 61.0972 0 47.3932 0 30.5486C0 13.7041 13.7041 0 30.5486 0C47.3932 0 61.0972 13.7041 61.0971 30.5486ZM30.5485 2.61109C15.1436 2.61109 2.61093 15.1438 2.61093 30.5486C2.61093 45.9535 15.1438 58.4862 30.5485 58.4862C31.5075 58.4862 32.4692 58.435 33.4212 58.3381C33.4543 44.6134 44.6132 33.4545 58.338 33.4214C58.435 32.4696 58.486 31.5076 58.486 30.5486C58.486 15.1438 45.9533 2.61109 30.5485 2.61109ZM36.0317 58.3992C36.0317 70.7327 46.0658 80.7667 58.3992 80.7667C70.7326 80.7667 80.7667 70.7327 80.7667 58.3992C80.7667 46.0657 70.7327 36.0317 58.3992 36.0317C46.0657 36.0317 36.0317 46.0657 36.0317 58.3992ZM38.9908 58.3992C38.9908 47.6973 47.6974 38.9907 58.3992 38.9907C69.1009 38.9907 77.8076 47.6973 77.8076 58.3992C77.8076 69.101 69.101 77.8076 58.3992 77.8076C47.6974 77.8076 38.9908 69.101 38.9908 58.3992ZM41.6019 58.3992C41.6019 67.6612 49.1371 75.1965 58.3992 75.1965C67.6613 75.1965 75.1965 67.6612 75.1965 58.3992C75.1965 49.1371 67.6613 41.6018 58.3992 41.6018C49.1371 41.6018 41.6019 49.1371 41.6019 58.3992ZM62.6639 53.6993C62.6639 54.4203 63.2483 55.0049 63.9694 55.0049C64.6903 55.0049 65.2749 54.4204 65.2749 53.6993C65.2749 51.2407 62.915 49.254 59.7048 48.8253V47.2589C59.7048 46.538 59.1203 45.9534 58.3992 45.9534C57.6783 45.9534 57.0937 46.5378 57.0937 47.2589V48.8253C53.8835 49.254 51.5235 51.2405 51.5235 53.6993C51.5235 57.1768 54.5964 58.5284 57.0937 59.3531V65.331C55.3001 64.9965 54.1346 64.0056 54.1346 63.099C54.1346 62.3781 53.5501 61.7935 52.829 61.7935C52.1081 61.7935 51.5235 62.378 51.5235 63.099C51.5235 65.5577 53.8835 67.5444 57.0937 67.973V69.5395C57.0937 70.2604 57.6781 70.845 58.3992 70.845C59.1201 70.845 59.7048 70.2606 59.7048 69.5395V67.973C62.915 67.5444 65.2749 65.5579 65.2749 63.099C65.2749 59.6216 62.202 58.27 59.7048 57.4453V51.4674C61.4982 51.8019 62.6639 52.7928 62.6639 53.6993ZM54.1346 53.6993C54.1346 52.7928 55.3001 51.8019 57.0937 51.4674V56.5739C54.8664 55.7239 54.1346 54.9552 54.1346 53.6993ZM62.6639 63.0989C62.6639 64.0054 61.4984 64.9964 59.7048 65.3309V60.2243C61.932 61.0744 62.6639 61.843 62.6639 63.0989ZM34.4096 29.1995C34.5577 29.6222 34.6392 30.0761 34.6392 30.5487C34.6392 32.8043 32.8045 34.6392 30.5489 34.6392C28.2934 34.6392 26.4584 32.8043 26.4584 30.5487C26.4584 29.8963 26.6126 29.2794 26.8855 28.7316L15.7004 17.5465C15.1905 17.0368 15.1905 16.2101 15.7004 15.7003C16.2101 15.1904 17.0367 15.1904 17.5466 15.7003L28.7317 26.8854C29.2796 26.6126 29.8963 26.4583 30.5488 26.4583C31.3824 26.4583 32.1584 26.7097 32.8057 27.1396L42.2799 19.7706C42.8489 19.3279 43.6692 19.4304 44.1118 19.9996C44.5546 20.5686 44.452 21.3888 43.8829 21.8315L34.4096 29.1995ZM30.5486 29.069C29.7328 29.069 29.069 29.7328 29.069 30.5487C29.069 31.3645 29.7328 32.0283 30.5486 32.0283C31.3645 32.0283 32.0282 31.3645 32.0282 30.5487C32.0282 29.7328 31.3645 29.069 30.5486 29.069ZM30.5486 10.9662C31.2696 10.9662 31.8542 10.3817 31.8542 9.66062V6.87561C31.8542 6.15469 31.2697 5.57007 30.5486 5.57007C29.8276 5.57007 29.2431 6.15453 29.2431 6.87561V9.66062C29.2431 10.3817 29.8276 10.9662 30.5486 10.9662ZM29.2431 51.4365C29.2431 50.7154 29.8277 50.131 30.5486 50.131C31.2696 50.131 31.8542 50.7156 31.8542 51.4365V54.2215C31.8542 54.9426 31.2697 55.5271 30.5486 55.5271C29.8276 55.5271 29.2431 54.9425 29.2431 54.2215V51.4365ZM50.131 30.5486C50.131 31.2695 50.7154 31.8541 51.4365 31.8541H54.2215C54.9425 31.8541 55.5271 31.2697 55.5271 30.5486C55.5271 29.8275 54.9426 29.243 54.2215 29.243H51.4365C50.7156 29.243 50.131 29.8275 50.131 30.5486ZM9.66056 29.243C10.3816 29.243 10.9661 29.8277 10.9661 30.5486C10.9661 31.2695 10.3816 31.8541 9.66056 31.8541H6.87555C6.15447 31.8541 5.57001 31.2697 5.57001 30.5486C5.57001 29.8275 6.15463 29.243 6.87555 29.243H9.66056ZM41.0361 12.3836C41.2416 12.5023 41.4662 12.5587 41.6877 12.5587C42.1389 12.5587 42.5776 12.3244 42.8194 11.9058L43.5158 10.7C43.8763 10.0756 43.6623 9.27716 43.038 8.91662C42.4135 8.55575 41.6152 8.77006 41.2547 9.39441L40.5583 10.6003C40.1978 11.2248 40.4118 12.0232 41.0361 12.3836ZM18.2778 49.1912C18.6383 48.5668 19.4368 48.3525 20.0611 48.7134C20.6855 49.0739 20.8995 49.8724 20.5389 50.4967L19.8426 51.7026C19.6008 52.1211 19.162 52.3554 18.7108 52.3554C18.4893 52.3554 18.2648 52.2991 18.0592 52.1804C17.4349 51.8198 17.2209 51.0214 17.5815 50.397L18.2778 49.1912ZM18.2778 11.9059C18.5196 12.3248 18.9583 12.5588 19.4096 12.5588C19.631 12.5588 19.8556 12.5024 20.0611 12.3837C20.6855 12.0232 20.8995 11.2247 20.5389 10.6004L19.8426 9.3945C19.482 8.76998 18.6836 8.556 18.0592 8.9167C17.4349 9.27725 17.2209 10.0757 17.5815 10.7L18.2778 11.9059ZM10.7 17.5814L11.9059 18.2777C12.5302 18.6383 12.7442 19.4367 12.3837 20.061C12.1418 20.4796 11.7031 20.7139 11.2519 20.7139C11.0304 20.7139 10.8058 20.6576 10.6003 20.5388L9.39445 19.8425C8.77009 19.482 8.55611 18.6835 8.91666 18.0592C9.2772 17.4347 10.0756 17.2207 10.7 17.5814ZM49.8451 20.7139C50.0666 20.7139 50.2912 20.6576 50.4967 20.5389L51.7026 19.8426C52.3269 19.482 52.5409 18.6836 52.1804 18.0592C51.8198 17.4347 51.0214 17.2209 50.397 17.5814L49.1911 18.2778C48.5668 18.6383 48.3528 19.4367 48.7133 20.0611C48.9552 20.4799 49.3941 20.7139 49.8451 20.7139ZM9.39463 41.2546L10.6005 40.5583C11.2247 40.1977 12.0233 40.4114 12.3839 41.0361C12.7444 41.6604 12.5304 42.4589 11.9061 42.8194L10.7002 43.5157C10.4947 43.6344 10.2701 43.6908 10.0486 43.6908C9.59738 43.6908 9.15867 43.4568 8.91684 43.0379C8.5563 42.4136 8.77028 41.6151 9.39463 41.2546Z" fill="url(#paint0_linear)"/>
<defs>
<linearGradient id="paint0_linear" x1="81.3776" y1="1.76502" x2="0.377619" y2="83.265" gradientUnits="userSpaceOnUse">
<stop stop-color="#80B9FF"/>
<stop offset="0.489583" stop-color="#2387FF"/>
<stop offset="1" stop-color="#136CD8"/>
</linearGradient>
</defs>
</svg>
