<svg width="41" height="41" viewBox="0 0 41 41" fill="none" xmlns="http://www.w3.org/2000/svg">
<path d="M35.0106 10.003C35.0106 8.67649 34.4836 7.40434 33.5457 6.46637C32.6077 5.52841 31.3355 5.00146 30.0091 5.00146H10.003C8.99602 5.00743 8.01428 5.31722 7.18625 5.89031C6.35822 6.4634 5.72247 7.2731 5.36218 8.21345C5.0019 9.1538 4.93385 10.181 5.16696 11.1607C5.40007 12.1403 5.92347 13.0268 6.66867 13.7041V30.009C6.66867 31.3355 7.19561 32.6077 8.13358 33.5456C9.07154 34.4836 10.3437 35.0105 11.6702 35.0105H28.3419C29.6684 35.0105 30.9405 34.4836 31.8785 33.5456C32.8165 32.6077 33.3434 31.3355 33.3434 30.009V13.7041C33.8646 13.238 34.2822 12.6678 34.5694 12.0303C34.8565 11.3928 35.0068 10.7022 35.0106 10.003ZM10.003 8.33581H30.0091C30.4512 8.33581 30.8753 8.51146 31.1879 8.82411C31.5006 9.13677 31.6762 9.56082 31.6762 10.003C31.6762 10.4451 31.5006 10.8692 31.1879 11.1818C30.8753 11.4945 30.4512 11.6701 30.0091 11.6701H10.003C9.56085 11.6701 9.1368 11.4945 8.82414 11.1818C8.51149 10.8692 8.33584 10.4451 8.33584 10.003C8.33584 9.56082 8.51149 9.13677 8.82414 8.82411C9.1368 8.51146 9.56085 8.33581 10.003 8.33581ZM30.0091 30.009C30.0091 30.4512 29.8334 30.8752 29.5208 31.1879C29.2081 31.5006 28.7841 31.6762 28.3419 31.6762H11.6702C11.228 31.6762 10.804 31.5006 10.4913 31.1879C10.1787 30.8752 10.003 30.4512 10.003 30.009V15.0045H30.0091V30.009Z" fill="black"/>
<path d="M23.5571 20.006H16.455C15.6539 20.006 15.0045 20.6554 15.0045 21.4564V21.8899C15.0045 22.6909 15.6539 23.3403 16.455 23.3403H23.5571C24.3582 23.3403 25.0076 22.6909 25.0076 21.8899V21.4564C25.0076 20.6554 24.3582 20.006 23.5571 20.006Z" fill="black"/>
</svg>
