<svg width="145" height="41" viewBox="0 0 145 41" fill="none" xmlns="http://www.w3.org/2000/svg">
<path d="M29.6309 11.2154L23.2907 4.87529L19.1573 0.745678C18.6766 0.264962 18.0369 0 17.3556 0C16.6743 0 16.0346 0.264962 15.5539 0.745678L5.08409 11.2154C1.84399 14.4555 0.0384613 18.7631 0.000609594 23.3431C-0.0372421 27.9156 1.68879 32.2496 4.86076 35.5351C4.93268 35.6108 5.00838 35.6865 5.08409 35.7623C5.40204 36.0802 5.73135 36.3868 6.06445 36.6707L6.17422 36.7615C6.178 36.7653 6.178 36.7653 6.18179 36.7653C9.29698 39.3922 13.2676 40.8419 17.3556 40.8419C21.9924 40.8419 26.3529 39.0364 29.6271 35.7585C36.3988 28.9944 36.3988 17.9833 29.6309 11.2154ZM5.6935 35.1528C5.62158 35.0809 5.55345 35.009 5.48153 34.9371C-0.714787 28.5099 -0.620158 18.1423 5.6935 11.8286L16.1671 1.35509C16.485 1.03714 16.9089 0.863018 17.3594 0.863018C17.8098 0.863018 18.2338 1.03714 18.5517 1.35509L21.3641 4.16747C21.3565 4.16747 21.3489 4.17125 21.3452 4.17125C21.3187 4.17504 21.2884 4.17882 21.2619 4.18261C21.2165 4.19018 21.171 4.19396 21.1218 4.20153C21.0916 4.20532 21.0613 4.21289 21.031 4.22046C20.9894 4.23182 20.9439 4.23939 20.9023 4.25074C20.872 4.25831 20.8417 4.26967 20.8115 4.27724C20.7698 4.29238 20.7282 4.30373 20.6865 4.31887C20.6563 4.33023 20.626 4.34159 20.5957 4.35294C20.5541 4.37187 20.5162 4.39079 20.4746 4.40972C20.4443 4.42486 20.4178 4.43621 20.3875 4.45136C20.3459 4.47407 20.308 4.49678 20.2664 4.52327C20.2399 4.53841 20.2134 4.55356 20.1869 4.57248C20.1453 4.60276 20.1036 4.63304 20.062 4.66332C20.0431 4.67847 20.0204 4.69361 19.9976 4.71253C19.9371 4.76174 19.8765 4.81473 19.8197 4.87151L9.28562 15.417C4.83427 19.8683 4.83427 27.1131 9.28562 31.5645C9.30833 31.5872 9.33104 31.6099 9.35375 31.6326C9.39918 31.6781 9.44838 31.7273 9.49381 31.7689C9.5468 31.8181 9.59601 31.8673 9.649 31.9127C11.2653 33.3814 13.3547 34.1573 15.5463 34.1043C17.7152 34.0476 19.7592 33.1618 21.3035 31.6099C21.3982 31.5115 21.4928 31.4131 21.5836 31.3147C22.9501 29.8044 23.7222 27.874 23.7639 25.8413C23.7677 25.6975 23.7677 25.5537 23.7639 25.4098C23.7601 25.3265 23.7563 25.2433 23.7487 25.16C23.745 25.0994 23.745 25.0389 23.7374 24.9821C23.7298 24.9026 23.7222 24.8269 23.7147 24.7474C23.7071 24.6831 23.7033 24.6225 23.6957 24.5582C23.6844 24.4787 23.673 24.3992 23.6579 24.3235C23.6465 24.2629 23.639 24.2024 23.6314 24.1418C23.6163 24.0661 23.6011 23.9942 23.586 23.9185C23.5708 23.8541 23.5595 23.7898 23.5481 23.7292C23.533 23.6611 23.5141 23.5929 23.4951 23.5248C23.4762 23.4567 23.4611 23.3885 23.4421 23.3242C23.4232 23.2561 23.4005 23.1917 23.3816 23.1274C23.3589 23.0592 23.3399 22.9911 23.3172 22.9268C23.2945 22.8624 23.268 22.7981 23.2453 22.7337C23.2188 22.6656 23.1961 22.6012 23.1696 22.5331C23.1431 22.4687 23.1166 22.4082 23.0901 22.3476C23.0636 22.2795 23.0333 22.2151 23.0031 22.147C22.9766 22.0864 22.9425 22.0259 22.9122 21.9653C22.8819 21.901 22.8517 21.8366 22.8176 21.7723C22.7835 21.7117 22.7495 21.6474 22.7154 21.5868C22.6813 21.5262 22.651 21.4657 22.6132 21.4051C22.5753 21.3408 22.5375 21.2802 22.4959 21.2196C22.4618 21.1629 22.4277 21.1061 22.3899 21.0493C22.3482 20.9887 22.3066 20.9282 22.265 20.8676C22.2271 20.8146 22.1893 20.7579 22.1514 20.7049C22.106 20.6443 22.0568 20.5837 22.0114 20.5232C21.9697 20.4702 21.9319 20.421 21.8902 20.368C21.841 20.3074 21.788 20.2469 21.735 20.1901C21.6934 20.1409 21.6518 20.0917 21.6101 20.0462C21.5533 19.9857 21.4966 19.9251 21.4398 19.8646C21.3982 19.8229 21.3603 19.7775 21.3149 19.7359C21.3035 19.7245 21.2922 19.7094 21.277 19.698C21.2581 19.6791 21.2354 19.6564 21.2165 19.6374L17.9574 16.3784L18.2943 16.0415C19.1649 15.1709 20.3232 14.694 21.5533 14.694C22.7835 14.694 23.9418 15.1747 24.8124 16.0415C24.8994 16.1286 24.9827 16.2119 25.066 16.3065C27.4998 18.8388 28.8398 22.1659 28.8398 25.6786C28.8398 33.1353 22.7722 39.203 15.3154 39.203C15.217 39.203 15.1186 39.203 15.0201 39.1992C14.9179 39.1954 14.8158 39.1916 14.7098 39.1878C11.7876 39.0553 8.97145 37.9766 6.71171 36.1143L6.61329 36.031C6.31048 35.7471 6.0001 35.4557 5.6935 35.1528ZM17.3556 16.9765L20.6146 20.2355C20.6298 20.2506 20.6487 20.2696 20.6638 20.2847L20.6714 20.2923C20.679 20.2998 20.6828 20.3036 20.6903 20.3112L20.6979 20.3188C22.4315 22.1432 22.3937 24.967 20.6146 26.746C19.744 27.6166 18.5896 28.0935 17.3594 28.0935C16.1292 28.0935 14.9709 27.6166 14.1004 26.746C13.2298 25.8754 12.7528 24.7209 12.7528 23.487C12.7528 22.2568 13.2336 21.0985 14.1004 20.2317L17.3556 16.9765ZM29.0177 35.1528C25.9025 38.268 21.7615 39.9827 17.3556 39.9827C17.1701 39.9827 16.9846 39.9789 16.7992 39.9751C16.9127 39.9638 17.0301 39.9486 17.1436 39.9373C17.1815 39.9335 17.2193 39.9259 17.2572 39.9221C17.3329 39.9108 17.4124 39.8994 17.4881 39.8881C17.5373 39.8805 17.5827 39.8729 17.6319 39.8654C17.7 39.854 17.7644 39.8427 17.8325 39.8313C17.8855 39.8237 17.9347 39.8124 17.9877 39.801C18.0483 39.7897 18.1126 39.7783 18.1732 39.767C18.2262 39.7556 18.2792 39.7442 18.3322 39.7329C18.3927 39.7215 18.4495 39.7064 18.5101 39.695C18.5631 39.6837 18.6198 39.6685 18.6728 39.6572C18.7296 39.642 18.7902 39.6307 18.847 39.6156C18.8999 39.6004 18.9567 39.5891 19.0097 39.5739C19.0665 39.5588 19.1233 39.5436 19.18 39.5285C19.233 39.5133 19.2898 39.4982 19.3428 39.4831C19.3996 39.4679 19.4526 39.449 19.5094 39.4339C19.5623 39.4187 19.6191 39.3998 19.6721 39.3847C19.7251 39.3657 19.7819 39.3506 19.8349 39.3317C19.8879 39.3127 19.9447 39.2938 19.9976 39.2787C20.0506 39.2597 20.1036 39.2408 20.1566 39.2219C20.2096 39.203 20.2626 39.184 20.3194 39.1651C20.3724 39.1462 20.4254 39.1273 20.4784 39.1045C20.5313 39.0856 20.5843 39.0629 20.6411 39.0402C20.6941 39.0213 20.7433 38.9986 20.7963 38.9759C20.8493 38.9531 20.9023 38.9304 20.9553 38.9077C21.0045 38.885 21.0575 38.8623 21.1067 38.8396C21.1597 38.8169 21.2127 38.7942 21.2657 38.7677C21.3149 38.745 21.3641 38.7222 21.4133 38.6995C21.4663 38.673 21.5193 38.6503 21.5723 38.6238C21.6177 38.6011 21.6631 38.5784 21.7123 38.5557C21.8259 38.4989 21.9394 38.4421 22.0492 38.3816C22.0871 38.3627 22.1249 38.3437 22.1628 38.321C22.2157 38.2907 22.2687 38.2605 22.3217 38.234C22.3672 38.2075 22.4126 38.1848 22.458 38.1583C22.511 38.128 22.5602 38.0977 22.6132 38.0674C22.6586 38.0409 22.704 38.0144 22.7495 37.9879C22.7987 37.9576 22.8517 37.9236 22.9009 37.8933C22.9463 37.8668 22.9917 37.8365 23.0333 37.81C23.0826 37.7797 23.1318 37.7457 23.181 37.7116C23.2264 37.6813 23.268 37.6548 23.3134 37.6246C23.3627 37.5905 23.4119 37.5564 23.4611 37.5261C23.5027 37.4959 23.5481 37.4656 23.5898 37.4353C23.639 37.4012 23.6844 37.3672 23.7336 37.3331C23.7752 37.3028 23.8207 37.2725 23.8623 37.2385C23.9115 37.2044 23.9569 37.1665 24.0023 37.1325C24.044 37.1022 24.0856 37.0681 24.1273 37.0378C24.1727 37 24.2181 36.9659 24.2673 36.9281C24.3089 36.894 24.3506 36.8637 24.3922 36.8297C24.4376 36.7918 24.4831 36.754 24.5285 36.7161C24.5701 36.682 24.608 36.648 24.6496 36.6139C24.695 36.5761 24.7405 36.5382 24.7821 36.5004C24.8199 36.4663 24.8616 36.4322 24.8994 36.3944C24.9449 36.3565 24.9865 36.3149 25.0319 36.277C25.0698 36.243 25.1076 36.2051 25.1455 36.171C25.1871 36.1294 25.2325 36.0916 25.2742 36.0499C25.312 36.0121 25.3499 35.978 25.3877 35.9402C25.4294 35.8985 25.471 35.8569 25.5126 35.8152C25.5505 35.7774 25.5845 35.7395 25.6224 35.7017C25.664 35.66 25.7057 35.6184 25.7473 35.573C25.7814 35.5351 25.8154 35.4973 25.8533 35.4594C25.9328 35.3724 26.0123 35.2891 26.088 35.202C26.122 35.1642 26.1561 35.1263 26.1902 35.0847C26.228 35.0431 26.2659 34.9976 26.3037 34.9522C26.3378 34.9106 26.3756 34.8689 26.4097 34.8273C26.4476 34.7819 26.4816 34.7403 26.5195 34.6948C26.5535 34.6532 26.5876 34.6116 26.6217 34.5661C26.6558 34.5207 26.6898 34.4753 26.7277 34.4299C26.7617 34.3844 26.7958 34.3428 26.8299 34.2974C26.8639 34.252 26.898 34.2065 26.9321 34.1611C26.9661 34.1157 26.9964 34.0703 27.0305 34.0286C27.0645 33.9832 27.0948 33.9378 27.1289 33.8886C27.1592 33.8432 27.1932 33.7977 27.2235 33.7523C27.2538 33.7069 27.2879 33.6577 27.3182 33.6123C27.3484 33.5669 27.3787 33.5176 27.409 33.4722C27.4393 33.4268 27.4696 33.3776 27.4998 33.3322C27.5301 33.283 27.5604 33.2375 27.5907 33.1883C27.621 33.1391 27.6475 33.0937 27.6777 33.0445C27.708 32.9953 27.7345 32.9461 27.7648 32.8969C27.7913 32.8477 27.8216 32.8022 27.8481 32.753C27.8746 32.7038 27.9049 32.6546 27.9314 32.6016C27.9578 32.5524 27.9843 32.507 28.0108 32.4578C28.0373 32.4086 28.0638 32.3556 28.0903 32.3026C28.1168 32.2534 28.1395 32.208 28.166 32.1588C28.1925 32.1058 28.219 32.0528 28.2455 31.9998C28.2682 31.9506 28.2947 31.9052 28.3174 31.856C28.3439 31.7992 28.3704 31.7462 28.3969 31.6894C28.4196 31.644 28.4423 31.5948 28.4613 31.5494C28.4878 31.4888 28.5143 31.4282 28.5408 31.3677C28.5597 31.326 28.5786 31.2806 28.5975 31.239C28.6316 31.1595 28.6619 31.08 28.696 31.0043C28.7111 30.9664 28.7262 30.9286 28.7414 30.8907C28.7792 30.7961 28.8133 30.7053 28.8474 30.6106C28.8625 30.569 28.8776 30.5312 28.889 30.4895C28.9117 30.4214 28.9382 30.357 28.9609 30.2889C28.9761 30.2435 28.9912 30.1981 29.0063 30.1488C29.0253 30.0883 29.048 30.0239 29.0669 29.9634C29.082 29.9142 29.0972 29.865 29.1123 29.8195C29.1312 29.759 29.1502 29.6984 29.1653 29.6341C29.1805 29.5849 29.1918 29.5357 29.207 29.4827C29.2221 29.4221 29.241 29.3615 29.2562 29.301C29.2713 29.2518 29.2827 29.1988 29.294 29.1496C29.3092 29.089 29.3243 29.0284 29.3394 28.9679C29.3508 28.9149 29.3621 28.8657 29.3735 28.8127C29.3886 28.7521 29.4 28.6916 29.4151 28.6272C29.4265 28.5742 29.4378 28.5212 29.4454 28.472C29.4568 28.4115 29.4681 28.3471 29.4795 28.2865C29.4908 28.2336 29.4984 28.1806 29.506 28.1276C29.5173 28.0632 29.5287 28.0027 29.5363 27.9383C29.5438 27.8853 29.5514 27.8323 29.559 27.7793C29.5665 27.715 29.5779 27.6506 29.5855 27.5863C29.593 27.5333 29.6006 27.4803 29.6044 27.4311C29.612 27.3668 29.6195 27.3024 29.6271 27.2343C29.6309 27.1813 29.6385 27.1321 29.6422 27.0791C29.6498 27.0109 29.6536 26.9428 29.6612 26.8785C29.665 26.8293 29.6687 26.7801 29.6725 26.7271C29.6763 26.6551 29.6801 26.587 29.6877 26.5151C29.6915 26.4659 29.6952 26.4205 29.6952 26.3713C29.699 26.2918 29.7028 26.2123 29.7028 26.1328C29.7028 26.0949 29.7066 26.0533 29.7066 26.0154C29.7104 25.8943 29.7104 25.777 29.7104 25.6559C29.7104 21.9199 28.2834 18.3808 25.7019 15.6933C25.6148 15.5987 25.524 15.504 25.4294 15.4094C24.396 14.3836 23.022 13.8159 21.5609 13.8159C21.3792 13.8159 21.1975 13.8234 21.0159 13.8424C19.7592 13.9635 18.5933 14.5123 17.6925 15.417L13.4909 19.6223C12.4576 20.6557 11.8898 22.0297 11.8898 23.4907C11.8898 24.9518 12.4576 26.3258 13.4909 27.3592C14.5243 28.3925 15.8983 28.9603 17.3594 28.9603C18.8205 28.9603 20.1945 28.3925 21.2278 27.3592C22.0757 26.5113 22.6132 25.4287 22.776 24.2591C22.776 24.2667 22.7797 24.2705 22.7797 24.2781C22.7911 24.35 22.8025 24.4219 22.8138 24.4938C22.8214 24.5468 22.8327 24.6036 22.8403 24.6566C22.8517 24.7361 22.8592 24.8118 22.8668 24.8913C22.8706 24.9405 22.8782 24.9897 22.8819 25.0427C22.8895 25.1335 22.8933 25.2243 22.8971 25.3152C22.8971 25.353 22.9009 25.3947 22.9046 25.4325C22.9084 25.565 22.9084 25.6937 22.9084 25.8262C22.8252 29.8801 19.5851 33.1391 15.5311 33.2451C15.164 33.2565 14.7968 33.2375 14.4372 33.1959C12.8777 33.0104 11.4167 32.348 10.2357 31.2768C10.213 31.2541 10.1903 31.2352 10.1676 31.2125C10.1449 31.1898 10.1221 31.1708 10.0994 31.1481C10.054 31.1065 10.0086 31.0611 9.96695 31.0157L9.94803 31.0005C9.93289 30.9854 9.91774 30.974 9.9026 30.9589C9.77391 30.8302 9.649 30.6977 9.52787 30.5652C9.52787 30.5652 9.52787 30.5652 9.52787 30.5614C5.91304 26.5567 5.91304 20.4285 9.52787 16.4238C9.52787 16.4238 9.52787 16.4238 9.52787 16.4201C9.649 16.2876 9.77391 16.1551 9.9026 16.0264L20.4329 5.48849C20.4708 5.45064 20.5124 5.41279 20.5541 5.37872C20.5692 5.36737 20.5843 5.35601 20.5995 5.34465C20.626 5.32573 20.6525 5.30302 20.6828 5.28409C20.7055 5.26895 20.7282 5.2576 20.7547 5.24246C20.7774 5.2311 20.7963 5.21596 20.819 5.2046C20.8417 5.19325 20.8682 5.18189 20.8909 5.17054C20.9137 5.15918 20.9364 5.14783 20.9591 5.13647C20.9818 5.12511 21.0083 5.11754 21.0348 5.10997C21.0575 5.1024 21.0802 5.09105 21.1067 5.08348C21.1332 5.07591 21.1597 5.07212 21.1862 5.06455C21.2089 5.05698 21.2316 5.0532 21.2581 5.04563C21.2846 5.04184 21.3111 5.03806 21.3414 5.03427C21.3641 5.03049 21.3868 5.0267 21.4095 5.02292C21.4398 5.01913 21.4663 5.01913 21.4966 5.01913C21.5193 5.01913 21.5382 5.01535 21.5609 5.01535C21.5912 5.01535 21.6177 5.01913 21.648 5.01913C21.6707 5.01913 21.6934 5.01913 21.7161 5.02292C21.7464 5.0267 21.7729 5.03049 21.8032 5.03427C21.8259 5.03806 21.8486 5.03806 21.8675 5.04184C21.8978 5.04563 21.9243 5.05698 21.9508 5.06077C21.9735 5.06455 21.9924 5.06834 22.0151 5.07591C22.0416 5.08348 22.0719 5.09483 22.0984 5.10619C22.1211 5.11376 22.14 5.12133 22.1628 5.1289C22.1893 5.14026 22.2157 5.15161 22.2385 5.16297C22.2612 5.17432 22.2801 5.18189 22.3028 5.19325C22.3255 5.2046 22.3482 5.21974 22.3747 5.23488C22.3974 5.24624 22.4164 5.2576 22.4391 5.27274C22.4618 5.28788 22.4807 5.30302 22.5034 5.32194C22.5261 5.33708 22.5451 5.35222 22.5678 5.36737C22.5867 5.38251 22.6056 5.40143 22.6245 5.42036C22.6473 5.43928 22.6662 5.45821 22.6889 5.47714L29.029 11.8173C35.4487 18.2596 35.4487 28.7218 29.0177 35.1528Z" fill="#2387FF"/>
<path d="M29.6309 11.2154L23.2907 4.87529L19.1573 0.745678C18.6766 0.264962 18.0369 0 17.3556 0C16.6743 0 16.0346 0.264962 15.5539 0.745678L5.08409 11.2154C1.84399 14.4555 0.0384613 18.7631 0.000609594 23.3431C-0.0372421 27.9156 1.68879 32.2496 4.86076 35.5351C4.93268 35.6108 5.00838 35.6865 5.08409 35.7623C5.40204 36.0802 5.73135 36.3868 6.06445 36.6707L6.17422 36.7615C6.178 36.7653 6.178 36.7653 6.18179 36.7653C9.29698 39.3922 13.2676 40.8419 17.3556 40.8419C21.9924 40.8419 26.3529 39.0364 29.6271 35.7585C36.3988 28.9944 36.3988 17.9833 29.6309 11.2154ZM5.6935 35.1528C5.62158 35.0809 5.55345 35.009 5.48153 34.9371C-0.714787 28.5099 -0.620158 18.1423 5.6935 11.8286L16.1671 1.35509C16.485 1.03714 16.9089 0.863018 17.3594 0.863018C17.8098 0.863018 18.2338 1.03714 18.5517 1.35509L21.3641 4.16747C21.3565 4.16747 21.3489 4.17125 21.3452 4.17125C21.3187 4.17504 21.2884 4.17882 21.2619 4.18261C21.2165 4.19018 21.171 4.19396 21.1218 4.20153C21.0916 4.20532 21.0613 4.21289 21.031 4.22046C20.9894 4.23182 20.9439 4.23939 20.9023 4.25074C20.872 4.25831 20.8417 4.26967 20.8115 4.27724C20.7698 4.29238 20.7282 4.30373 20.6865 4.31887C20.6563 4.33023 20.626 4.34159 20.5957 4.35294C20.5541 4.37187 20.5162 4.39079 20.4746 4.40972C20.4443 4.42486 20.4178 4.43621 20.3875 4.45136C20.3459 4.47407 20.308 4.49678 20.2664 4.52327C20.2399 4.53841 20.2134 4.55356 20.1869 4.57248C20.1453 4.60276 20.1036 4.63304 20.062 4.66332C20.0431 4.67847 20.0204 4.69361 19.9976 4.71253C19.9371 4.76174 19.8765 4.81473 19.8197 4.87151L9.28562 15.417C4.83427 19.8683 4.83427 27.1131 9.28562 31.5645C9.30833 31.5872 9.33104 31.6099 9.35375 31.6326C9.39918 31.6781 9.44838 31.7273 9.49381 31.7689C9.5468 31.8181 9.59601 31.8673 9.649 31.9127C11.2653 33.3814 13.3547 34.1573 15.5463 34.1043C17.7152 34.0476 19.7592 33.1618 21.3035 31.6099C21.3982 31.5115 21.4928 31.4131 21.5836 31.3147C22.9501 29.8044 23.7222 27.874 23.7639 25.8413C23.7677 25.6975 23.7677 25.5537 23.7639 25.4098C23.7601 25.3265 23.7563 25.2433 23.7487 25.16C23.745 25.0994 23.745 25.0389 23.7374 24.9821C23.7298 24.9026 23.7222 24.8269 23.7147 24.7474C23.7071 24.6831 23.7033 24.6225 23.6957 24.5582C23.6844 24.4787 23.673 24.3992 23.6579 24.3235C23.6465 24.2629 23.639 24.2024 23.6314 24.1418C23.6163 24.0661 23.6011 23.9942 23.586 23.9185C23.5708 23.8541 23.5595 23.7898 23.5481 23.7292C23.533 23.6611 23.5141 23.5929 23.4951 23.5248C23.4762 23.4567 23.4611 23.3885 23.4421 23.3242C23.4232 23.2561 23.4005 23.1917 23.3816 23.1274C23.3589 23.0592 23.3399 22.9911 23.3172 22.9268C23.2945 22.8624 23.268 22.7981 23.2453 22.7337C23.2188 22.6656 23.1961 22.6012 23.1696 22.5331C23.1431 22.4687 23.1166 22.4082 23.0901 22.3476C23.0636 22.2795 23.0333 22.2151 23.0031 22.147C22.9766 22.0864 22.9425 22.0259 22.9122 21.9653C22.8819 21.901 22.8517 21.8366 22.8176 21.7723C22.7835 21.7117 22.7495 21.6474 22.7154 21.5868C22.6813 21.5262 22.651 21.4657 22.6132 21.4051C22.5753 21.3408 22.5375 21.2802 22.4959 21.2196C22.4618 21.1629 22.4277 21.1061 22.3899 21.0493C22.3482 20.9887 22.3066 20.9282 22.265 20.8676C22.2271 20.8146 22.1893 20.7579 22.1514 20.7049C22.106 20.6443 22.0568 20.5837 22.0114 20.5232C21.9697 20.4702 21.9319 20.421 21.8902 20.368C21.841 20.3074 21.788 20.2469 21.735 20.1901C21.6934 20.1409 21.6518 20.0917 21.6101 20.0462C21.5533 19.9857 21.4966 19.9251 21.4398 19.8646C21.3982 19.8229 21.3603 19.7775 21.3149 19.7359C21.3035 19.7245 21.2922 19.7094 21.277 19.698C21.2581 19.6791 21.2354 19.6564 21.2165 19.6374L17.9574 16.3784L18.2943 16.0415C19.1649 15.1709 20.3232 14.694 21.5533 14.694C22.7835 14.694 23.9418 15.1747 24.8124 16.0415C24.8994 16.1286 24.9827 16.2119 25.066 16.3065C27.4998 18.8388 28.8398 22.1659 28.8398 25.6786C28.8398 33.1353 22.7722 39.203 15.3154 39.203C15.217 39.203 15.1186 39.203 15.0201 39.1992C14.9179 39.1954 14.8158 39.1916 14.7098 39.1878C11.7876 39.0553 8.97145 37.9766 6.71171 36.1143L6.61329 36.031C6.31048 35.7471 6.0001 35.4557 5.6935 35.1528ZM17.3556 16.9765L20.6146 20.2355C20.6298 20.2506 20.6487 20.2696 20.6638 20.2847L20.6714 20.2923C20.679 20.2998 20.6828 20.3036 20.6903 20.3112L20.6979 20.3188C22.4315 22.1432 22.3937 24.967 20.6146 26.746C19.744 27.6166 18.5896 28.0935 17.3594 28.0935C16.1292 28.0935 14.9709 27.6166 14.1004 26.746C13.2298 25.8754 12.7528 24.7209 12.7528 23.487C12.7528 22.2568 13.2336 21.0985 14.1004 20.2317L17.3556 16.9765ZM29.0177 35.1528C25.9025 38.268 21.7615 39.9827 17.3556 39.9827C17.1701 39.9827 16.9846 39.9789 16.7992 39.9751C16.9127 39.9638 17.0301 39.9486 17.1436 39.9373C17.1815 39.9335 17.2193 39.9259 17.2572 39.9221C17.3329 39.9108 17.4124 39.8994 17.4881 39.8881C17.5373 39.8805 17.5827 39.8729 17.6319 39.8654C17.7 39.854 17.7644 39.8427 17.8325 39.8313C17.8855 39.8237 17.9347 39.8124 17.9877 39.801C18.0483 39.7897 18.1126 39.7783 18.1732 39.767C18.2262 39.7556 18.2792 39.7442 18.3322 39.7329C18.3927 39.7215 18.4495 39.7064 18.5101 39.695C18.5631 39.6837 18.6198 39.6685 18.6728 39.6572C18.7296 39.642 18.7902 39.6307 18.847 39.6156C18.8999 39.6004 18.9567 39.5891 19.0097 39.5739C19.0665 39.5588 19.1233 39.5436 19.18 39.5285C19.233 39.5133 19.2898 39.4982 19.3428 39.4831C19.3996 39.4679 19.4526 39.449 19.5094 39.4339C19.5623 39.4187 19.6191 39.3998 19.6721 39.3847C19.7251 39.3657 19.7819 39.3506 19.8349 39.3317C19.8879 39.3127 19.9447 39.2938 19.9976 39.2787C20.0506 39.2597 20.1036 39.2408 20.1566 39.2219C20.2096 39.203 20.2626 39.184 20.3194 39.1651C20.3724 39.1462 20.4254 39.1273 20.4784 39.1045C20.5313 39.0856 20.5843 39.0629 20.6411 39.0402C20.6941 39.0213 20.7433 38.9986 20.7963 38.9759C20.8493 38.9531 20.9023 38.9304 20.9553 38.9077C21.0045 38.885 21.0575 38.8623 21.1067 38.8396C21.1597 38.8169 21.2127 38.7942 21.2657 38.7677C21.3149 38.745 21.3641 38.7222 21.4133 38.6995C21.4663 38.673 21.5193 38.6503 21.5723 38.6238C21.6177 38.6011 21.6631 38.5784 21.7123 38.5557C21.8259 38.4989 21.9394 38.4421 22.0492 38.3816C22.0871 38.3627 22.1249 38.3437 22.1628 38.321C22.2157 38.2907 22.2687 38.2605 22.3217 38.234C22.3672 38.2075 22.4126 38.1848 22.458 38.1583C22.511 38.128 22.5602 38.0977 22.6132 38.0674C22.6586 38.0409 22.704 38.0144 22.7495 37.9879C22.7987 37.9576 22.8517 37.9236 22.9009 37.8933C22.9463 37.8668 22.9917 37.8365 23.0333 37.81C23.0826 37.7797 23.1318 37.7457 23.181 37.7116C23.2264 37.6813 23.268 37.6548 23.3134 37.6246C23.3627 37.5905 23.4119 37.5564 23.4611 37.5261C23.5027 37.4959 23.5481 37.4656 23.5898 37.4353C23.639 37.4012 23.6844 37.3672 23.7336 37.3331C23.7752 37.3028 23.8207 37.2725 23.8623 37.2385C23.9115 37.2044 23.9569 37.1665 24.0023 37.1325C24.044 37.1022 24.0856 37.0681 24.1273 37.0378C24.1727 37 24.2181 36.9659 24.2673 36.9281C24.3089 36.894 24.3506 36.8637 24.3922 36.8297C24.4376 36.7918 24.4831 36.754 24.5285 36.7161C24.5701 36.682 24.608 36.648 24.6496 36.6139C24.695 36.5761 24.7405 36.5382 24.7821 36.5004C24.8199 36.4663 24.8616 36.4322 24.8994 36.3944C24.9449 36.3565 24.9865 36.3149 25.0319 36.277C25.0698 36.243 25.1076 36.2051 25.1455 36.171C25.1871 36.1294 25.2325 36.0916 25.2742 36.0499C25.312 36.0121 25.3499 35.978 25.3877 35.9402C25.4294 35.8985 25.471 35.8569 25.5126 35.8152C25.5505 35.7774 25.5845 35.7395 25.6224 35.7017C25.664 35.66 25.7057 35.6184 25.7473 35.573C25.7814 35.5351 25.8154 35.4973 25.8533 35.4594C25.9328 35.3724 26.0123 35.2891 26.088 35.202C26.122 35.1642 26.1561 35.1263 26.1902 35.0847C26.228 35.0431 26.2659 34.9976 26.3037 34.9522C26.3378 34.9106 26.3756 34.8689 26.4097 34.8273C26.4476 34.7819 26.4816 34.7403 26.5195 34.6948C26.5535 34.6532 26.5876 34.6116 26.6217 34.5661C26.6558 34.5207 26.6898 34.4753 26.7277 34.4299C26.7617 34.3844 26.7958 34.3428 26.8299 34.2974C26.8639 34.252 26.898 34.2065 26.9321 34.1611C26.9661 34.1157 26.9964 34.0703 27.0305 34.0286C27.0645 33.9832 27.0948 33.9378 27.1289 33.8886C27.1592 33.8432 27.1932 33.7977 27.2235 33.7523C27.2538 33.7069 27.2879 33.6577 27.3182 33.6123C27.3484 33.5669 27.3787 33.5176 27.409 33.4722C27.4393 33.4268 27.4696 33.3776 27.4998 33.3322C27.5301 33.283 27.5604 33.2375 27.5907 33.1883C27.621 33.1391 27.6475 33.0937 27.6777 33.0445C27.708 32.9953 27.7345 32.9461 27.7648 32.8969C27.7913 32.8477 27.8216 32.8022 27.8481 32.753C27.8746 32.7038 27.9049 32.6546 27.9314 32.6016C27.9578 32.5524 27.9843 32.507 28.0108 32.4578C28.0373 32.4086 28.0638 32.3556 28.0903 32.3026C28.1168 32.2534 28.1395 32.208 28.166 32.1588C28.1925 32.1058 28.219 32.0528 28.2455 31.9998C28.2682 31.9506 28.2947 31.9052 28.3174 31.856C28.3439 31.7992 28.3704 31.7462 28.3969 31.6894C28.4196 31.644 28.4423 31.5948 28.4613 31.5494C28.4878 31.4888 28.5143 31.4282 28.5408 31.3677C28.5597 31.326 28.5786 31.2806 28.5975 31.239C28.6316 31.1595 28.6619 31.08 28.696 31.0043C28.7111 30.9664 28.7262 30.9286 28.7414 30.8907C28.7792 30.7961 28.8133 30.7053 28.8474 30.6106C28.8625 30.569 28.8776 30.5312 28.889 30.4895C28.9117 30.4214 28.9382 30.357 28.9609 30.2889C28.9761 30.2435 28.9912 30.1981 29.0063 30.1488C29.0253 30.0883 29.048 30.0239 29.0669 29.9634C29.082 29.9142 29.0972 29.865 29.1123 29.8195C29.1312 29.759 29.1502 29.6984 29.1653 29.6341C29.1805 29.5849 29.1918 29.5357 29.207 29.4827C29.2221 29.4221 29.241 29.3615 29.2562 29.301C29.2713 29.2518 29.2827 29.1988 29.294 29.1496C29.3092 29.089 29.3243 29.0284 29.3394 28.9679C29.3508 28.9149 29.3621 28.8657 29.3735 28.8127C29.3886 28.7521 29.4 28.6916 29.4151 28.6272C29.4265 28.5742 29.4378 28.5212 29.4454 28.472C29.4568 28.4115 29.4681 28.3471 29.4795 28.2865C29.4908 28.2336 29.4984 28.1806 29.506 28.1276C29.5173 28.0632 29.5287 28.0027 29.5363 27.9383C29.5438 27.8853 29.5514 27.8323 29.559 27.7793C29.5665 27.715 29.5779 27.6506 29.5855 27.5863C29.593 27.5333 29.6006 27.4803 29.6044 27.4311C29.612 27.3668 29.6195 27.3024 29.6271 27.2343C29.6309 27.1813 29.6385 27.1321 29.6422 27.0791C29.6498 27.0109 29.6536 26.9428 29.6612 26.8785C29.665 26.8293 29.6687 26.7801 29.6725 26.7271C29.6763 26.6551 29.6801 26.587 29.6877 26.5151C29.6915 26.4659 29.6952 26.4205 29.6952 26.3713C29.699 26.2918 29.7028 26.2123 29.7028 26.1328C29.7028 26.0949 29.7066 26.0533 29.7066 26.0154C29.7104 25.8943 29.7104 25.777 29.7104 25.6559C29.7104 21.9199 28.2834 18.3808 25.7019 15.6933C25.6148 15.5987 25.524 15.504 25.4294 15.4094C24.396 14.3836 23.022 13.8159 21.5609 13.8159C21.3792 13.8159 21.1975 13.8234 21.0159 13.8424C19.7592 13.9635 18.5933 14.5123 17.6925 15.417L13.4909 19.6223C12.4576 20.6557 11.8898 22.0297 11.8898 23.4907C11.8898 24.9518 12.4576 26.3258 13.4909 27.3592C14.5243 28.3925 15.8983 28.9603 17.3594 28.9603C18.8205 28.9603 20.1945 28.3925 21.2278 27.3592C22.0757 26.5113 22.6132 25.4287 22.776 24.2591C22.776 24.2667 22.7797 24.2705 22.7797 24.2781C22.7911 24.35 22.8025 24.4219 22.8138 24.4938C22.8214 24.5468 22.8327 24.6036 22.8403 24.6566C22.8517 24.7361 22.8592 24.8118 22.8668 24.8913C22.8706 24.9405 22.8782 24.9897 22.8819 25.0427C22.8895 25.1335 22.8933 25.2243 22.8971 25.3152C22.8971 25.353 22.9009 25.3947 22.9046 25.4325C22.9084 25.565 22.9084 25.6937 22.9084 25.8262C22.8252 29.8801 19.5851 33.1391 15.5311 33.2451C15.164 33.2565 14.7968 33.2375 14.4372 33.1959C12.8777 33.0104 11.4167 32.348 10.2357 31.2768C10.213 31.2541 10.1903 31.2352 10.1676 31.2125C10.1449 31.1898 10.1221 31.1708 10.0994 31.1481C10.054 31.1065 10.0086 31.0611 9.96695 31.0157L9.94803 31.0005C9.93289 30.9854 9.91774 30.974 9.9026 30.9589C9.77391 30.8302 9.649 30.6977 9.52787 30.5652C9.52787 30.5652 9.52787 30.5652 9.52787 30.5614C5.91304 26.5567 5.91304 20.4285 9.52787 16.4238C9.52787 16.4238 9.52787 16.4238 9.52787 16.4201C9.649 16.2876 9.77391 16.1551 9.9026 16.0264L20.4329 5.48849C20.4708 5.45064 20.5124 5.41279 20.5541 5.37872C20.5692 5.36737 20.5843 5.35601 20.5995 5.34465C20.626 5.32573 20.6525 5.30302 20.6828 5.28409C20.7055 5.26895 20.7282 5.2576 20.7547 5.24246C20.7774 5.2311 20.7963 5.21596 20.819 5.2046C20.8417 5.19325 20.8682 5.18189 20.8909 5.17054C20.9137 5.15918 20.9364 5.14783 20.9591 5.13647C20.9818 5.12511 21.0083 5.11754 21.0348 5.10997C21.0575 5.1024 21.0802 5.09105 21.1067 5.08348C21.1332 5.07591 21.1597 5.07212 21.1862 5.06455C21.2089 5.05698 21.2316 5.0532 21.2581 5.04563C21.2846 5.04184 21.3111 5.03806 21.3414 5.03427C21.3641 5.03049 21.3868 5.0267 21.4095 5.02292C21.4398 5.01913 21.4663 5.01913 21.4966 5.01913C21.5193 5.01913 21.5382 5.01535 21.5609 5.01535C21.5912 5.01535 21.6177 5.01913 21.648 5.01913C21.6707 5.01913 21.6934 5.01913 21.7161 5.02292C21.7464 5.0267 21.7729 5.03049 21.8032 5.03427C21.8259 5.03806 21.8486 5.03806 21.8675 5.04184C21.8978 5.04563 21.9243 5.05698 21.9508 5.06077C21.9735 5.06455 21.9924 5.06834 22.0151 5.07591C22.0416 5.08348 22.0719 5.09483 22.0984 5.10619C22.1211 5.11376 22.14 5.12133 22.1628 5.1289C22.1893 5.14026 22.2157 5.15161 22.2385 5.16297C22.2612 5.17432 22.2801 5.18189 22.3028 5.19325C22.3255 5.2046 22.3482 5.21974 22.3747 5.23488C22.3974 5.24624 22.4164 5.2576 22.4391 5.27274C22.4618 5.28788 22.4807 5.30302 22.5034 5.32194C22.5261 5.33708 22.5451 5.35222 22.5678 5.36737C22.5867 5.38251 22.6056 5.40143 22.6245 5.42036C22.6473 5.43928 22.6662 5.45821 22.6889 5.47714L29.029 11.8173C35.4487 18.2596 35.4487 28.7218 29.0177 35.1528Z" fill="url(#paint0_radial)"/>
<path d="M29.6309 11.2154L23.2907 4.87529L19.1573 0.745678C18.6766 0.264962 18.0369 0 17.3556 0C16.6743 0 16.0346 0.264962 15.5539 0.745678L5.08409 11.2154C1.84399 14.4555 0.0384613 18.7631 0.000609594 23.3431C-0.0372421 27.9156 1.68879 32.2496 4.86076 35.5351C4.93268 35.6108 5.00838 35.6865 5.08409 35.7623C5.40204 36.0802 5.73135 36.3868 6.06445 36.6707L6.17422 36.7615C6.178 36.7653 6.178 36.7653 6.18179 36.7653C9.29698 39.3922 13.2676 40.8419 17.3556 40.8419C21.9924 40.8419 26.3529 39.0364 29.6271 35.7585C36.3988 28.9944 36.3988 17.9833 29.6309 11.2154ZM5.6935 35.1528C5.62158 35.0809 5.55345 35.009 5.48153 34.9371C-0.714787 28.5099 -0.620158 18.1423 5.6935 11.8286L16.1671 1.35509C16.485 1.03714 16.9089 0.863018 17.3594 0.863018C17.8098 0.863018 18.2338 1.03714 18.5517 1.35509L21.3641 4.16747C21.3565 4.16747 21.3489 4.17125 21.3452 4.17125C21.3187 4.17504 21.2884 4.17882 21.2619 4.18261C21.2165 4.19018 21.171 4.19396 21.1218 4.20153C21.0916 4.20532 21.0613 4.21289 21.031 4.22046C20.9894 4.23182 20.9439 4.23939 20.9023 4.25074C20.872 4.25831 20.8417 4.26967 20.8115 4.27724C20.7698 4.29238 20.7282 4.30373 20.6865 4.31887C20.6563 4.33023 20.626 4.34159 20.5957 4.35294C20.5541 4.37187 20.5162 4.39079 20.4746 4.40972C20.4443 4.42486 20.4178 4.43621 20.3875 4.45136C20.3459 4.47407 20.308 4.49678 20.2664 4.52327C20.2399 4.53841 20.2134 4.55356 20.1869 4.57248C20.1453 4.60276 20.1036 4.63304 20.062 4.66332C20.0431 4.67847 20.0204 4.69361 19.9976 4.71253C19.9371 4.76174 19.8765 4.81473 19.8197 4.87151L9.28562 15.417C4.83427 19.8683 4.83427 27.1131 9.28562 31.5645C9.30833 31.5872 9.33104 31.6099 9.35375 31.6326C9.39918 31.6781 9.44838 31.7273 9.49381 31.7689C9.5468 31.8181 9.59601 31.8673 9.649 31.9127C11.2653 33.3814 13.3547 34.1573 15.5463 34.1043C17.7152 34.0476 19.7592 33.1618 21.3035 31.6099C21.3982 31.5115 21.4928 31.4131 21.5836 31.3147C22.9501 29.8044 23.7222 27.874 23.7639 25.8413C23.7677 25.6975 23.7677 25.5537 23.7639 25.4098C23.7601 25.3265 23.7563 25.2433 23.7487 25.16C23.745 25.0994 23.745 25.0389 23.7374 24.9821C23.7298 24.9026 23.7222 24.8269 23.7147 24.7474C23.7071 24.6831 23.7033 24.6225 23.6957 24.5582C23.6844 24.4787 23.673 24.3992 23.6579 24.3235C23.6465 24.2629 23.639 24.2024 23.6314 24.1418C23.6163 24.0661 23.6011 23.9942 23.586 23.9185C23.5708 23.8541 23.5595 23.7898 23.5481 23.7292C23.533 23.6611 23.5141 23.5929 23.4951 23.5248C23.4762 23.4567 23.4611 23.3885 23.4421 23.3242C23.4232 23.2561 23.4005 23.1917 23.3816 23.1274C23.3589 23.0592 23.3399 22.9911 23.3172 22.9268C23.2945 22.8624 23.268 22.7981 23.2453 22.7337C23.2188 22.6656 23.1961 22.6012 23.1696 22.5331C23.1431 22.4687 23.1166 22.4082 23.0901 22.3476C23.0636 22.2795 23.0333 22.2151 23.0031 22.147C22.9766 22.0864 22.9425 22.0259 22.9122 21.9653C22.8819 21.901 22.8517 21.8366 22.8176 21.7723C22.7835 21.7117 22.7495 21.6474 22.7154 21.5868C22.6813 21.5262 22.651 21.4657 22.6132 21.4051C22.5753 21.3408 22.5375 21.2802 22.4959 21.2196C22.4618 21.1629 22.4277 21.1061 22.3899 21.0493C22.3482 20.9887 22.3066 20.9282 22.265 20.8676C22.2271 20.8146 22.1893 20.7579 22.1514 20.7049C22.106 20.6443 22.0568 20.5837 22.0114 20.5232C21.9697 20.4702 21.9319 20.421 21.8902 20.368C21.841 20.3074 21.788 20.2469 21.735 20.1901C21.6934 20.1409 21.6518 20.0917 21.6101 20.0462C21.5533 19.9857 21.4966 19.9251 21.4398 19.8646C21.3982 19.8229 21.3603 19.7775 21.3149 19.7359C21.3035 19.7245 21.2922 19.7094 21.277 19.698C21.2581 19.6791 21.2354 19.6564 21.2165 19.6374L17.9574 16.3784L18.2943 16.0415C19.1649 15.1709 20.3232 14.694 21.5533 14.694C22.7835 14.694 23.9418 15.1747 24.8124 16.0415C24.8994 16.1286 24.9827 16.2119 25.066 16.3065C27.4998 18.8388 28.8398 22.1659 28.8398 25.6786C28.8398 33.1353 22.7722 39.203 15.3154 39.203C15.217 39.203 15.1186 39.203 15.0201 39.1992C14.9179 39.1954 14.8158 39.1916 14.7098 39.1878C11.7876 39.0553 8.97145 37.9766 6.71171 36.1143L6.61329 36.031C6.31048 35.7471 6.0001 35.4557 5.6935 35.1528ZM17.3556 16.9765L20.6146 20.2355C20.6298 20.2506 20.6487 20.2696 20.6638 20.2847L20.6714 20.2923C20.679 20.2998 20.6828 20.3036 20.6903 20.3112L20.6979 20.3188C22.4315 22.1432 22.3937 24.967 20.6146 26.746C19.744 27.6166 18.5896 28.0935 17.3594 28.0935C16.1292 28.0935 14.9709 27.6166 14.1004 26.746C13.2298 25.8754 12.7528 24.7209 12.7528 23.487C12.7528 22.2568 13.2336 21.0985 14.1004 20.2317L17.3556 16.9765ZM29.0177 35.1528C25.9025 38.268 21.7615 39.9827 17.3556 39.9827C17.1701 39.9827 16.9846 39.9789 16.7992 39.9751C16.9127 39.9638 17.0301 39.9486 17.1436 39.9373C17.1815 39.9335 17.2193 39.9259 17.2572 39.9221C17.3329 39.9108 17.4124 39.8994 17.4881 39.8881C17.5373 39.8805 17.5827 39.8729 17.6319 39.8654C17.7 39.854 17.7644 39.8427 17.8325 39.8313C17.8855 39.8237 17.9347 39.8124 17.9877 39.801C18.0483 39.7897 18.1126 39.7783 18.1732 39.767C18.2262 39.7556 18.2792 39.7442 18.3322 39.7329C18.3927 39.7215 18.4495 39.7064 18.5101 39.695C18.5631 39.6837 18.6198 39.6685 18.6728 39.6572C18.7296 39.642 18.7902 39.6307 18.847 39.6156C18.8999 39.6004 18.9567 39.5891 19.0097 39.5739C19.0665 39.5588 19.1233 39.5436 19.18 39.5285C19.233 39.5133 19.2898 39.4982 19.3428 39.4831C19.3996 39.4679 19.4526 39.449 19.5094 39.4339C19.5623 39.4187 19.6191 39.3998 19.6721 39.3847C19.7251 39.3657 19.7819 39.3506 19.8349 39.3317C19.8879 39.3127 19.9447 39.2938 19.9976 39.2787C20.0506 39.2597 20.1036 39.2408 20.1566 39.2219C20.2096 39.203 20.2626 39.184 20.3194 39.1651C20.3724 39.1462 20.4254 39.1273 20.4784 39.1045C20.5313 39.0856 20.5843 39.0629 20.6411 39.0402C20.6941 39.0213 20.7433 38.9986 20.7963 38.9759C20.8493 38.9531 20.9023 38.9304 20.9553 38.9077C21.0045 38.885 21.0575 38.8623 21.1067 38.8396C21.1597 38.8169 21.2127 38.7942 21.2657 38.7677C21.3149 38.745 21.3641 38.7222 21.4133 38.6995C21.4663 38.673 21.5193 38.6503 21.5723 38.6238C21.6177 38.6011 21.6631 38.5784 21.7123 38.5557C21.8259 38.4989 21.9394 38.4421 22.0492 38.3816C22.0871 38.3627 22.1249 38.3437 22.1628 38.321C22.2157 38.2907 22.2687 38.2605 22.3217 38.234C22.3672 38.2075 22.4126 38.1848 22.458 38.1583C22.511 38.128 22.5602 38.0977 22.6132 38.0674C22.6586 38.0409 22.704 38.0144 22.7495 37.9879C22.7987 37.9576 22.8517 37.9236 22.9009 37.8933C22.9463 37.8668 22.9917 37.8365 23.0333 37.81C23.0826 37.7797 23.1318 37.7457 23.181 37.7116C23.2264 37.6813 23.268 37.6548 23.3134 37.6246C23.3627 37.5905 23.4119 37.5564 23.4611 37.5261C23.5027 37.4959 23.5481 37.4656 23.5898 37.4353C23.639 37.4012 23.6844 37.3672 23.7336 37.3331C23.7752 37.3028 23.8207 37.2725 23.8623 37.2385C23.9115 37.2044 23.9569 37.1665 24.0023 37.1325C24.044 37.1022 24.0856 37.0681 24.1273 37.0378C24.1727 37 24.2181 36.9659 24.2673 36.9281C24.3089 36.894 24.3506 36.8637 24.3922 36.8297C24.4376 36.7918 24.4831 36.754 24.5285 36.7161C24.5701 36.682 24.608 36.648 24.6496 36.6139C24.695 36.5761 24.7405 36.5382 24.7821 36.5004C24.8199 36.4663 24.8616 36.4322 24.8994 36.3944C24.9449 36.3565 24.9865 36.3149 25.0319 36.277C25.0698 36.243 25.1076 36.2051 25.1455 36.171C25.1871 36.1294 25.2325 36.0916 25.2742 36.0499C25.312 36.0121 25.3499 35.978 25.3877 35.9402C25.4294 35.8985 25.471 35.8569 25.5126 35.8152C25.5505 35.7774 25.5845 35.7395 25.6224 35.7017C25.664 35.66 25.7057 35.6184 25.7473 35.573C25.7814 35.5351 25.8154 35.4973 25.8533 35.4594C25.9328 35.3724 26.0123 35.2891 26.088 35.202C26.122 35.1642 26.1561 35.1263 26.1902 35.0847C26.228 35.0431 26.2659 34.9976 26.3037 34.9522C26.3378 34.9106 26.3756 34.8689 26.4097 34.8273C26.4476 34.7819 26.4816 34.7403 26.5195 34.6948C26.5535 34.6532 26.5876 34.6116 26.6217 34.5661C26.6558 34.5207 26.6898 34.4753 26.7277 34.4299C26.7617 34.3844 26.7958 34.3428 26.8299 34.2974C26.8639 34.252 26.898 34.2065 26.9321 34.1611C26.9661 34.1157 26.9964 34.0703 27.0305 34.0286C27.0645 33.9832 27.0948 33.9378 27.1289 33.8886C27.1592 33.8432 27.1932 33.7977 27.2235 33.7523C27.2538 33.7069 27.2879 33.6577 27.3182 33.6123C27.3484 33.5669 27.3787 33.5176 27.409 33.4722C27.4393 33.4268 27.4696 33.3776 27.4998 33.3322C27.5301 33.283 27.5604 33.2375 27.5907 33.1883C27.621 33.1391 27.6475 33.0937 27.6777 33.0445C27.708 32.9953 27.7345 32.9461 27.7648 32.8969C27.7913 32.8477 27.8216 32.8022 27.8481 32.753C27.8746 32.7038 27.9049 32.6546 27.9314 32.6016C27.9578 32.5524 27.9843 32.507 28.0108 32.4578C28.0373 32.4086 28.0638 32.3556 28.0903 32.3026C28.1168 32.2534 28.1395 32.208 28.166 32.1588C28.1925 32.1058 28.219 32.0528 28.2455 31.9998C28.2682 31.9506 28.2947 31.9052 28.3174 31.856C28.3439 31.7992 28.3704 31.7462 28.3969 31.6894C28.4196 31.644 28.4423 31.5948 28.4613 31.5494C28.4878 31.4888 28.5143 31.4282 28.5408 31.3677C28.5597 31.326 28.5786 31.2806 28.5975 31.239C28.6316 31.1595 28.6619 31.08 28.696 31.0043C28.7111 30.9664 28.7262 30.9286 28.7414 30.8907C28.7792 30.7961 28.8133 30.7053 28.8474 30.6106C28.8625 30.569 28.8776 30.5312 28.889 30.4895C28.9117 30.4214 28.9382 30.357 28.9609 30.2889C28.9761 30.2435 28.9912 30.1981 29.0063 30.1488C29.0253 30.0883 29.048 30.0239 29.0669 29.9634C29.082 29.9142 29.0972 29.865 29.1123 29.8195C29.1312 29.759 29.1502 29.6984 29.1653 29.6341C29.1805 29.5849 29.1918 29.5357 29.207 29.4827C29.2221 29.4221 29.241 29.3615 29.2562 29.301C29.2713 29.2518 29.2827 29.1988 29.294 29.1496C29.3092 29.089 29.3243 29.0284 29.3394 28.9679C29.3508 28.9149 29.3621 28.8657 29.3735 28.8127C29.3886 28.7521 29.4 28.6916 29.4151 28.6272C29.4265 28.5742 29.4378 28.5212 29.4454 28.472C29.4568 28.4115 29.4681 28.3471 29.4795 28.2865C29.4908 28.2336 29.4984 28.1806 29.506 28.1276C29.5173 28.0632 29.5287 28.0027 29.5363 27.9383C29.5438 27.8853 29.5514 27.8323 29.559 27.7793C29.5665 27.715 29.5779 27.6506 29.5855 27.5863C29.593 27.5333 29.6006 27.4803 29.6044 27.4311C29.612 27.3668 29.6195 27.3024 29.6271 27.2343C29.6309 27.1813 29.6385 27.1321 29.6422 27.0791C29.6498 27.0109 29.6536 26.9428 29.6612 26.8785C29.665 26.8293 29.6687 26.7801 29.6725 26.7271C29.6763 26.6551 29.6801 26.587 29.6877 26.5151C29.6915 26.4659 29.6952 26.4205 29.6952 26.3713C29.699 26.2918 29.7028 26.2123 29.7028 26.1328C29.7028 26.0949 29.7066 26.0533 29.7066 26.0154C29.7104 25.8943 29.7104 25.777 29.7104 25.6559C29.7104 21.9199 28.2834 18.3808 25.7019 15.6933C25.6148 15.5987 25.524 15.504 25.4294 15.4094C24.396 14.3836 23.022 13.8159 21.5609 13.8159C21.3792 13.8159 21.1975 13.8234 21.0159 13.8424C19.7592 13.9635 18.5933 14.5123 17.6925 15.417L13.4909 19.6223C12.4576 20.6557 11.8898 22.0297 11.8898 23.4907C11.8898 24.9518 12.4576 26.3258 13.4909 27.3592C14.5243 28.3925 15.8983 28.9603 17.3594 28.9603C18.8205 28.9603 20.1945 28.3925 21.2278 27.3592C22.0757 26.5113 22.6132 25.4287 22.776 24.2591C22.776 24.2667 22.7797 24.2705 22.7797 24.2781C22.7911 24.35 22.8025 24.4219 22.8138 24.4938C22.8214 24.5468 22.8327 24.6036 22.8403 24.6566C22.8517 24.7361 22.8592 24.8118 22.8668 24.8913C22.8706 24.9405 22.8782 24.9897 22.8819 25.0427C22.8895 25.1335 22.8933 25.2243 22.8971 25.3152C22.8971 25.353 22.9009 25.3947 22.9046 25.4325C22.9084 25.565 22.9084 25.6937 22.9084 25.8262C22.8252 29.8801 19.5851 33.1391 15.5311 33.2451C15.164 33.2565 14.7968 33.2375 14.4372 33.1959C12.8777 33.0104 11.4167 32.348 10.2357 31.2768C10.213 31.2541 10.1903 31.2352 10.1676 31.2125C10.1449 31.1898 10.1221 31.1708 10.0994 31.1481C10.054 31.1065 10.0086 31.0611 9.96695 31.0157L9.94803 31.0005C9.93289 30.9854 9.91774 30.974 9.9026 30.9589C9.77391 30.8302 9.649 30.6977 9.52787 30.5652C9.52787 30.5652 9.52787 30.5652 9.52787 30.5614C5.91304 26.5567 5.91304 20.4285 9.52787 16.4238C9.52787 16.4238 9.52787 16.4238 9.52787 16.4201C9.649 16.2876 9.77391 16.1551 9.9026 16.0264L20.4329 5.48849C20.4708 5.45064 20.5124 5.41279 20.5541 5.37872C20.5692 5.36737 20.5843 5.35601 20.5995 5.34465C20.626 5.32573 20.6525 5.30302 20.6828 5.28409C20.7055 5.26895 20.7282 5.2576 20.7547 5.24246C20.7774 5.2311 20.7963 5.21596 20.819 5.2046C20.8417 5.19325 20.8682 5.18189 20.8909 5.17054C20.9137 5.15918 20.9364 5.14783 20.9591 5.13647C20.9818 5.12511 21.0083 5.11754 21.0348 5.10997C21.0575 5.1024 21.0802 5.09105 21.1067 5.08348C21.1332 5.07591 21.1597 5.07212 21.1862 5.06455C21.2089 5.05698 21.2316 5.0532 21.2581 5.04563C21.2846 5.04184 21.3111 5.03806 21.3414 5.03427C21.3641 5.03049 21.3868 5.0267 21.4095 5.02292C21.4398 5.01913 21.4663 5.01913 21.4966 5.01913C21.5193 5.01913 21.5382 5.01535 21.5609 5.01535C21.5912 5.01535 21.6177 5.01913 21.648 5.01913C21.6707 5.01913 21.6934 5.01913 21.7161 5.02292C21.7464 5.0267 21.7729 5.03049 21.8032 5.03427C21.8259 5.03806 21.8486 5.03806 21.8675 5.04184C21.8978 5.04563 21.9243 5.05698 21.9508 5.06077C21.9735 5.06455 21.9924 5.06834 22.0151 5.07591C22.0416 5.08348 22.0719 5.09483 22.0984 5.10619C22.1211 5.11376 22.14 5.12133 22.1628 5.1289C22.1893 5.14026 22.2157 5.15161 22.2385 5.16297C22.2612 5.17432 22.2801 5.18189 22.3028 5.19325C22.3255 5.2046 22.3482 5.21974 22.3747 5.23488C22.3974 5.24624 22.4164 5.2576 22.4391 5.27274C22.4618 5.28788 22.4807 5.30302 22.5034 5.32194C22.5261 5.33708 22.5451 5.35222 22.5678 5.36737C22.5867 5.38251 22.6056 5.40143 22.6245 5.42036C22.6473 5.43928 22.6662 5.45821 22.6889 5.47714L29.029 11.8173C35.4487 18.2596 35.4487 28.7218 29.0177 35.1528Z" fill="url(#paint1_radial)"/>
<path d="M58.2581 12.5365C58.2089 12.086 58.0083 11.734 57.6563 11.4842C57.3043 11.2344 56.8387 11.1095 56.2709 11.1095C55.6729 11.1095 55.2035 11.2382 54.8666 11.4993C54.5297 11.7605 54.3594 12.0898 54.3556 12.4873C54.3518 12.7787 54.4389 13.021 54.6168 13.2102C54.7947 13.3995 55.0218 13.5547 55.2981 13.6682C55.5744 13.7818 55.8583 13.8726 56.146 13.9408L57.1377 14.1868C57.6676 14.3117 58.1673 14.4934 58.6404 14.7357C59.1136 14.9779 59.4997 15.2996 59.7949 15.7047C60.0939 16.1097 60.2415 16.6169 60.2415 17.2301C60.2378 18.1612 59.8857 18.9145 59.1855 19.4898C58.4852 20.0652 57.5011 20.3528 56.2368 20.3528C55.0067 20.3528 54.0263 20.0689 53.292 19.5012C52.5614 18.9334 52.1754 18.1234 52.1375 17.0749H54.0187C54.0566 17.6275 54.2837 18.0401 54.7001 18.3126C55.1164 18.5852 55.6236 18.7214 56.2217 18.7214C56.8463 18.7214 57.3535 18.5852 57.7433 18.3051C58.1332 18.0287 58.3263 17.6654 58.33 17.2149C58.3263 16.8061 58.1521 16.4958 57.8077 16.2838C57.4632 16.0718 57.0052 15.8939 56.4337 15.7501L55.2338 15.4397C54.3632 15.2164 53.6781 14.8757 53.1746 14.4215C52.6712 13.9673 52.4176 13.3616 52.4176 12.6046C52.4176 11.9838 52.5879 11.4388 52.9248 10.9694C53.2617 10.5038 53.7235 10.1367 54.3102 9.87928C54.8969 9.61811 55.5593 9.48941 56.2974 9.48941C57.0469 9.48941 57.7055 9.61811 58.2733 9.87928C58.841 10.1405 59.2839 10.4963 59.6056 10.9581C59.9274 11.4198 60.0939 11.9422 60.1015 12.5365H58.2581Z" fill="white"/>
<path d="M69.2048 20.1901V9.62947H73.1641C73.9741 9.62947 74.6555 9.78088 75.2081 10.0837C75.7607 10.3865 76.1771 10.7991 76.461 11.3252C76.7449 11.8514 76.8849 12.4494 76.8849 13.1232C76.8849 13.8007 76.7411 14.4026 76.4572 14.9287C76.1733 15.4548 75.7494 15.8674 75.193 16.1702C74.6365 16.4731 73.9514 16.6207 73.1376 16.6207H71.1163V20.1901H69.2048ZM71.1163 15.0498H72.8802C73.5918 15.0498 74.1142 14.8681 74.4435 14.5086C74.7728 14.149 74.9394 13.6872 74.9394 13.127C74.9394 12.563 74.7728 12.105 74.4435 11.7567C74.1142 11.4047 73.5881 11.2306 72.8727 11.2306H71.1201V15.0498H71.1163Z" fill="white"/>
<path d="M85.8065 20.1901V9.62947H87.7181V18.5852H92.37V20.1901H85.8065Z" fill="white"/>
<path d="M103.04 20.1901H101L104.717 9.62947H107.079L110.804 20.1901H108.764L107.885 17.5859H103.915L103.04 20.1901ZM104.426 16.0529H107.363L105.936 11.7984H105.853L104.426 16.0529Z" fill="white"/>
<path d="M125.025 12.5365C124.975 12.086 124.775 11.734 124.423 11.4842C124.067 11.2344 123.605 11.1095 123.037 11.1095C122.439 11.1095 121.97 11.2382 121.633 11.4993C121.296 11.7605 121.126 12.0898 121.122 12.4873C121.118 12.7787 121.205 13.021 121.383 13.2102C121.561 13.3995 121.788 13.5547 122.065 13.6682C122.341 13.7818 122.625 13.8726 122.913 13.9408L123.904 14.1868C124.434 14.3117 124.934 14.4934 125.407 14.7357C125.88 14.9779 126.266 15.2996 126.561 15.7047C126.86 16.1097 127.008 16.6169 127.008 17.2301C127.004 18.1612 126.652 18.9145 125.952 19.4898C125.252 20.0652 124.268 20.3528 123.003 20.3528C121.773 20.3528 120.793 20.0689 120.059 19.5012C119.328 18.9334 118.942 18.1234 118.904 17.0749H120.785C120.823 17.6275 121.05 18.0401 121.467 18.3126C121.883 18.5852 122.39 18.7214 122.988 18.7214C123.613 18.7214 124.12 18.5852 124.51 18.3051C124.9 18.0287 125.093 17.6654 125.097 17.2149C125.093 16.8061 124.919 16.4958 124.574 16.2838C124.23 16.0718 123.772 15.8939 123.2 15.7501L122 15.4397C121.13 15.2164 120.445 14.8757 119.941 14.4215C119.438 13.9673 119.184 13.3616 119.184 12.6046C119.184 11.9838 119.354 11.4388 119.691 10.9694C120.028 10.5038 120.49 10.1367 121.077 9.87928C121.663 9.61811 122.326 9.48941 123.064 9.48941C123.813 9.48941 124.472 9.61811 125.04 9.87928C125.608 10.1405 126.05 10.4963 126.372 10.9581C126.694 11.4198 126.86 11.9422 126.868 12.5365H125.025Z" fill="white"/>
<path d="M135.971 20.1901V9.62947H137.883V14.0998H142.777V9.63326H144.696V20.1939H142.777V15.7047H137.883V20.1901H135.971Z" fill="white"/>
<path d="M52.7057 31.6197H52.1376L53.7766 27.1564H54.3325L55.9715 31.6197H55.4033L54.9537 30.3567H53.1512L52.7057 31.6197ZM53.3229 29.8785H54.7861L54.0709 27.8676H54.0341L53.3229 29.8785Z" fill="white"/>
<path d="M61.2767 28.5528H60.7372C60.6923 28.3484 60.6105 28.1727 60.4879 28.0337C60.3653 27.8947 60.214 27.7844 60.0424 27.7149C59.8666 27.6413 59.6827 27.6045 59.4865 27.6045C59.2167 27.6045 58.9715 27.674 58.7549 27.8089C58.5382 27.9438 58.3625 28.1481 58.2358 28.4138C58.1091 28.6795 58.0437 29.0065 58.0437 29.3907C58.0437 29.7749 58.1091 30.1019 58.2358 30.3675C58.3625 30.6332 58.5382 30.8335 58.7549 30.9725C58.9715 31.1074 59.2167 31.1768 59.4865 31.1768C59.6827 31.1768 59.8707 31.1401 60.0424 31.0665C60.2181 30.9929 60.3653 30.8866 60.4879 30.7477C60.6105 30.6087 60.6963 30.4329 60.7372 30.2286H61.2767C61.2195 30.5351 61.1092 30.7926 60.9375 31.0133C60.7658 31.23 60.5574 31.3976 60.304 31.512C60.0505 31.6264 59.7767 31.6837 59.4783 31.6837C59.0982 31.6837 58.759 31.5897 58.4647 31.4057C58.1663 31.2218 57.9333 30.9561 57.7657 30.6128C57.5941 30.2695 57.5123 29.8648 57.5123 29.3948C57.5123 28.9247 57.5982 28.516 57.7657 28.1768C57.9374 27.8334 58.1704 27.5677 58.4647 27.3838C58.759 27.1958 59.0982 27.1059 59.4783 27.1059C59.7767 27.1059 60.0505 27.1631 60.304 27.2775C60.5533 27.392 60.7658 27.5596 60.9375 27.7762C61.1092 27.9887 61.2236 28.2462 61.2767 28.5528Z" fill="white"/>
<path d="M66.9663 28.5528H66.4268C66.3818 28.3484 66.3001 28.1727 66.1774 28.0337C66.0548 27.8947 65.9036 27.7844 65.7319 27.7149C65.5562 27.6413 65.3722 27.6045 65.176 27.6045C64.9063 27.6045 64.661 27.674 64.4444 27.8089C64.2278 27.9438 64.052 28.1481 63.9253 28.4138C63.7986 28.6795 63.7332 29.0065 63.7332 29.3907C63.7332 29.7749 63.7986 30.1019 63.9253 30.3675C64.052 30.6332 64.2278 30.8335 64.4444 30.9725C64.661 31.1074 64.9063 31.1768 65.176 31.1768C65.3722 31.1768 65.5602 31.1401 65.7319 31.0665C65.9077 30.9929 66.0548 30.8866 66.1774 30.7477C66.3001 30.6087 66.3859 30.4329 66.4268 30.2286H66.9663C66.9091 30.5351 66.7987 30.7926 66.627 31.0133C66.4554 31.23 66.2469 31.3976 65.9935 31.512C65.7401 31.6264 65.4662 31.6837 65.1679 31.6837C64.7877 31.6837 64.4485 31.5897 64.1542 31.4057C63.8558 31.2218 63.6229 30.9561 63.4553 30.6128C63.2836 30.2695 63.2019 29.8648 63.2019 29.3948C63.2019 28.9247 63.2877 28.516 63.4553 28.1768C63.627 27.8334 63.8599 27.5677 64.1542 27.3838C64.4485 27.1958 64.7877 27.1059 65.1679 27.1059C65.4662 27.1059 65.7401 27.1631 65.9935 27.2775C66.2428 27.392 66.4554 27.5596 66.627 27.7762C66.7987 27.9887 66.9091 28.2462 66.9663 28.5528Z" fill="white"/>
<path d="M72.8274 29.3907C72.8274 29.8607 72.7416 30.2695 72.574 30.6087C72.4024 30.952 72.1694 31.2177 71.8751 31.4016C71.5767 31.5897 71.2416 31.6796 70.8614 31.6796C70.4813 31.6796 70.1421 31.5856 69.8478 31.4016C69.5494 31.2177 69.3164 30.952 69.1489 30.6087C68.9772 30.2654 68.8954 29.8607 68.8954 29.3907C68.8954 28.9206 68.9813 28.5119 69.1489 28.1727C69.3205 27.8293 69.5535 27.5637 69.8478 27.3797C70.1421 27.1917 70.4813 27.1018 70.8614 27.1018C71.2416 27.1018 71.5808 27.1958 71.8751 27.3797C72.1694 27.5637 72.4064 27.8293 72.574 28.1727C72.7416 28.5119 72.8274 28.9206 72.8274 29.3907ZM72.3043 29.3907C72.3043 29.0065 72.2389 28.6795 72.1122 28.4138C71.9854 28.1481 71.8097 27.9479 71.5931 27.8089C71.3764 27.674 71.1312 27.6045 70.8614 27.6045C70.5917 27.6045 70.3464 27.674 70.1298 27.8089C69.9132 27.9438 69.7374 28.1481 69.6107 28.4138C69.484 28.6795 69.4186 29.0065 69.4186 29.3907C69.4186 29.7749 69.484 30.1019 69.6107 30.3675C69.7374 30.6332 69.9132 30.8335 70.1298 30.9725C70.3464 31.1074 70.5917 31.1768 70.8614 31.1768C71.1312 31.1768 71.3764 31.1074 71.5931 30.9725C71.8097 30.8376 71.9854 30.6332 72.1122 30.3675C72.2389 30.1019 72.3043 29.7749 72.3043 29.3907Z" fill="white"/>
<path d="M77.8875 27.159H78.427V30.1141C78.427 30.4493 78.3494 30.7354 78.19 30.9684C78.0306 31.2054 77.8221 31.3853 77.5564 31.512C77.2948 31.6387 77.0046 31.7 76.6899 31.7C76.3752 31.7 76.0891 31.6387 75.8234 31.512C75.5618 31.3853 75.3493 31.2054 75.1899 30.9684C75.0305 30.7313 74.9528 30.4452 74.9528 30.1141V27.159H75.4923V30.1141C75.4923 30.3471 75.5496 30.5433 75.6599 30.7027C75.7703 30.8621 75.9174 30.9847 76.0973 31.0706C76.2771 31.1523 76.4774 31.1973 76.6858 31.1973C76.8984 31.1973 77.0946 31.1564 77.2744 31.0706C77.4543 30.9888 77.6014 30.8662 77.7118 30.7027C77.8221 30.5433 77.8793 30.3471 77.8793 30.1141V27.159H77.8875Z" fill="white"/>
<path d="M84.2718 27.159V31.6224H83.7486L81.3167 28.1195H81.2717V31.6224H80.7322V27.159H81.2554L83.6955 30.67H83.7405V27.159H84.2718Z" fill="white"/>
<path d="M86.336 27.6372V27.159H89.6835V27.6372H88.2816V31.6183H87.742V27.6372H86.336Z" fill="white"/>
<path d="M92.2871 27.159V31.6224H91.7476V27.159H92.2871Z" fill="white"/>
<path d="M98.1319 27.159V31.6224H97.6087L95.1768 28.1195H95.1318V31.6224H94.5923V27.159H95.1155L97.5556 30.67H97.6006V27.159H98.1319Z" fill="white"/>
<path d="M103.49 28.5528C103.396 28.2585 103.241 28.0296 103.024 27.8579C102.808 27.6863 102.538 27.6045 102.219 27.6045C101.954 27.6045 101.717 27.674 101.5 27.8089C101.283 27.9438 101.112 28.1481 100.985 28.4138C100.858 28.6795 100.793 29.0065 100.793 29.3907C100.793 29.7749 100.858 30.1019 100.985 30.3675C101.116 30.6332 101.287 30.8335 101.508 30.9725C101.729 31.1074 101.978 31.1768 102.252 31.1768C102.501 31.1768 102.726 31.1237 102.918 31.0174C103.11 30.9112 103.266 30.7599 103.376 30.5637C103.486 30.3675 103.544 30.1387 103.552 29.8689H102.375V29.3907H104.075V29.8689C104.075 30.2368 103.997 30.5556 103.842 30.8253C103.687 31.0951 103.47 31.3076 103.196 31.4548C102.922 31.6019 102.608 31.6796 102.252 31.6796C101.855 31.6796 101.508 31.5856 101.21 31.4016C100.911 31.2177 100.678 30.952 100.515 30.6087C100.347 30.2654 100.266 29.8607 100.266 29.3907C100.266 28.9206 100.347 28.5119 100.515 28.1727C100.682 27.8293 100.911 27.5637 101.206 27.3797C101.5 27.1917 101.835 27.1018 102.219 27.1018C102.534 27.1018 102.816 27.1631 103.074 27.2857C103.331 27.4083 103.544 27.58 103.711 27.7966C103.883 28.0133 103.993 28.2667 104.05 28.5569H103.49V28.5528Z" fill="white"/>
<path d="M109.36 31.6183H108.792L110.431 27.1549H110.987L112.626 31.6183H112.057L111.608 30.3553H109.805L109.36 31.6183ZM109.977 29.8771H111.44L110.725 27.8661H110.692L109.977 29.8771Z" fill="white"/>
<path d="M118.086 27.159V31.6224H117.563L115.131 28.1195H115.086V31.6224H114.547V27.159H115.07L117.51 30.67H117.555V27.159H118.086Z" fill="white"/>
<path d="M121.773 31.6183H120.396V27.159H121.834C122.268 27.159 122.639 27.2489 122.946 27.4247C123.253 27.6045 123.49 27.8579 123.653 28.189C123.817 28.5201 123.898 28.9166 123.898 29.3784C123.898 29.8444 123.817 30.2449 123.649 30.576C123.481 30.9112 123.244 31.1687 122.926 31.3485C122.611 31.5324 122.223 31.6183 121.773 31.6183ZM120.935 31.14H121.736C122.288 31.14 122.701 30.9847 122.971 30.67C123.24 30.3553 123.375 29.9261 123.375 29.3825C123.375 28.843 123.244 28.4179 122.979 28.1073C122.713 27.7966 122.321 27.6413 121.797 27.6413H120.935V31.14Z" fill="white"/>
<path d="M128.738 27.6372V27.159H132.085V27.6372H130.683V31.6183H130.144V27.6372H128.738Z" fill="white"/>
<path d="M133.81 31.6183H133.242L134.881 27.1549H135.437L137.076 31.6183H136.508L136.058 30.3553H134.256L133.81 31.6183ZM134.427 29.8771H135.89L135.175 27.8661H135.138L134.427 29.8771Z" fill="white"/>
<path d="M139.262 27.159L140.411 29.0146H140.448L141.596 27.159H142.234L140.832 29.3907L142.234 31.6224H141.596L140.448 29.7994H140.411L139.262 31.6224H138.625L140.064 29.3907L138.625 27.159H139.262Z" fill="white"/>
<circle cx="144.387" cy="31.1482" r="0.613096" fill="white"/>
<defs>
<radialGradient id="paint0_radial" cx="0" cy="0" r="1" gradientUnits="userSpaceOnUse" gradientTransform="translate(23.231 3.2013) scale(23.8367)">
<stop stop-color="white" stop-opacity="0.35"/>
<stop offset="1" stop-color="white" stop-opacity="0"/>
</radialGradient>
<radialGradient id="paint1_radial" cx="0" cy="0" r="1" gradientUnits="userSpaceOnUse" gradientTransform="translate(8.82368 35.7853) scale(23.8367)">
<stop stop-color="#111833" stop-opacity="0.35"/>
<stop offset="1" stop-color="#111833" stop-opacity="0"/>
</radialGradient>
</defs>
</svg>
