<svg width="147" height="39" viewBox="0 0 147 39" fill="none" xmlns="http://www.w3.org/2000/svg">
<rect x="1.02625" y="1" width="25" height="37" rx="12.5" stroke="white" stroke-width="2"/>
<rect x="11.0262" y="9" width="5" height="10" rx="2.5" fill="#2387FF"/>
<path d="M52.5958 17.5078H54.8778C54.8331 15.2962 52.9474 13.7301 50.1605 13.7301C47.4119 13.7301 45.3473 15.277 45.3537 17.5909C45.3537 19.4702 46.6896 20.5504 48.8437 21.1065L50.3331 21.4901C51.7457 21.848 52.6789 22.2891 52.6853 23.3054C52.6789 24.424 51.6179 25.1719 50.071 25.1719C48.588 25.1719 47.4375 24.5071 47.3416 23.1328H45.0085C45.1044 25.7344 47.0412 27.1982 50.0902 27.1982C53.2287 27.1982 55.0504 25.6321 55.0568 23.3246C55.0504 21.0554 53.1775 20.0199 51.2088 19.5533L49.9815 19.2464C48.9076 18.9908 47.7443 18.5369 47.7571 17.4439C47.7635 16.4595 48.6456 15.7372 50.1285 15.7372C51.5412 15.7372 52.4744 16.3956 52.5958 17.5078ZM61.3514 27.1918C63.8187 27.1918 65.3911 25.728 65.5573 23.6442H63.3457C63.1475 24.6989 62.3869 25.3061 61.3705 25.3061C59.9259 25.3061 58.9927 24.098 58.9927 22.0909C58.9927 20.1094 59.9451 18.9205 61.3705 18.9205C62.4827 18.9205 63.1667 19.6364 63.3457 20.5824H65.5573C65.3975 18.4538 63.7356 17.054 61.3386 17.054C58.4621 17.054 56.6468 19.1314 56.6468 22.1293C56.6468 25.1016 58.4174 27.1918 61.3514 27.1918ZM67.4574 27H69.7713V21.228C69.7713 19.9815 70.7109 19.0994 71.9829 19.0994C72.3728 19.0994 72.8586 19.1697 73.0568 19.2337V17.1051C72.8458 17.0668 72.4815 17.0412 72.2258 17.0412C71.1008 17.0412 70.1612 17.6804 69.8032 18.8182H69.701V17.1818H67.4574V27ZM78.4724 27.1918C81.3489 27.1918 83.177 25.1655 83.177 22.1293C83.177 19.0866 81.3489 17.054 78.4724 17.054C75.596 17.054 73.7679 19.0866 73.7679 22.1293C73.7679 25.1655 75.596 27.1918 78.4724 27.1918ZM78.4852 25.3381C76.8936 25.3381 76.1138 23.919 76.1138 22.1229C76.1138 20.3267 76.8936 18.8885 78.4852 18.8885C80.0513 18.8885 80.8311 20.3267 80.8311 22.1229C80.8311 23.919 80.0513 25.3381 78.4852 25.3381ZM87.4549 13.9091H85.1409V27H87.4549V13.9091ZM92.1482 13.9091H89.8343V27H92.1482V13.9091ZM102.636 27.1726C104.323 27.1726 105.084 26.169 105.448 25.4531H105.589V27H107.865V13.9091H105.544V18.8054H105.448C105.097 18.0959 104.375 17.054 102.642 17.054C100.373 17.054 98.5898 18.831 98.5898 22.1037C98.5898 25.3381 100.322 27.1726 102.636 27.1726ZM103.282 25.2741C101.754 25.2741 100.948 23.9318 100.948 22.0909C100.948 20.2628 101.741 18.9524 103.282 18.9524C104.771 18.9524 105.589 20.1861 105.589 22.0909C105.589 23.9957 104.758 25.2741 103.282 25.2741ZM114.613 27.1918C117.489 27.1918 119.318 25.1655 119.318 22.1293C119.318 19.0866 117.489 17.054 114.613 17.054C111.737 17.054 109.909 19.0866 109.909 22.1293C109.909 25.1655 111.737 27.1918 114.613 27.1918ZM114.626 25.3381C113.034 25.3381 112.254 23.919 112.254 22.1229C112.254 20.3267 113.034 18.8885 114.626 18.8885C116.192 18.8885 116.972 20.3267 116.972 22.1229C116.972 23.919 116.192 25.3381 114.626 25.3381ZM123.044 27H125.46L127.301 20.3651H127.436L129.276 27H131.686L134.467 17.1818H132.102L130.401 24.0469H130.306L128.541 17.1818H126.208L124.444 24.0852H124.355L122.629 17.1818H120.27L123.044 27ZM138.396 21.2472C138.396 19.8281 139.253 19.0099 140.474 19.0099C141.669 19.0099 142.385 19.7962 142.385 21.1065V27H144.699V20.7486C144.705 18.3963 143.363 17.054 141.337 17.054C139.866 17.054 138.857 17.7571 138.409 18.8501H138.294V17.1818H136.082V27H138.396V21.2472Z" fill="white"/>
</svg>
